<svg width="520" height="317" viewBox="0 0 520 317" fill="none" xmlns="http://www.w3.org/2000/svg">
<path d="M7.94953 313.633C7.59972 315.815 5.54788 317.299 3.36661 316.95C1.18535 316.6 -0.299344 314.548 0.0504656 312.367L7.94953 313.633ZM87.3367 173.115L89.6792 176.357L89.6792 176.357L87.3367 173.115ZM390.474 113.611L391.983 117.316L390.474 113.611ZM512.607 1.88116C513.777 0.00740908 516.245 -0.562934 518.119 0.607262C519.993 1.77746 520.563 4.24506 519.393 6.11881L512.607 1.88116ZM0.221684 311.381C0.615348 309.207 2.69667 307.764 4.87046 308.158C7.04424 308.552 8.48731 310.633 8.09364 312.807L0.221684 311.381ZM12.399 294.785C11.7969 296.911 9.58568 298.145 7.46019 297.543C5.3347 296.941 4.0998 294.73 4.70197 292.604L12.399 294.785ZM5.23031 290.765C5.84794 288.644 8.06808 287.425 10.1891 288.043C12.3102 288.661 13.5289 290.881 12.9113 293.002L5.23031 290.765ZM18.754 275.293C17.9893 277.366 15.6892 278.426 13.6166 277.661C11.5441 276.896 10.4839 274.596 11.2487 272.524L18.754 275.293ZM11.9295 270.699C12.7088 268.631 15.0163 267.588 17.0834 268.367C19.1505 269.146 20.1945 271.454 19.4151 273.521L11.9295 270.699ZM26.5911 256.339C25.6676 258.346 23.2921 259.224 21.2852 258.301C19.2784 257.377 18.4001 255.002 19.3235 252.995L26.5911 256.339ZM20.1318 251.255C21.0698 249.255 23.4517 248.394 25.4517 249.332C27.4518 250.27 28.3128 252.652 27.3748 254.652L20.1318 251.255ZM35.9081 238.102C34.8209 240.025 32.3805 240.702 30.4575 239.615C28.5344 238.528 27.8569 236.087 28.9442 234.164L35.9081 238.102ZM29.9018 232.486C31.0044 230.572 33.4501 229.914 35.3644 231.017C37.2787 232.119 37.9367 234.565 36.8341 236.479L29.9018 232.486ZM46.7631 220.773C45.5044 222.588 43.0123 223.04 41.1968 221.781C39.3813 220.522 38.9299 218.03 40.1885 216.215L46.7631 220.773ZM41.2975 214.63C42.5721 212.826 45.0681 212.396 46.8724 213.671C48.6768 214.946 49.1062 217.442 47.8316 219.246L41.2975 214.63ZM59.2099 204.603C57.7739 206.282 55.2489 206.478 53.5701 205.043C51.8913 203.607 51.6945 201.082 53.1304 199.403L59.2099 204.603ZM54.3943 197.94C55.8465 196.275 58.3733 196.103 60.038 197.555C61.7028 199.007 61.875 201.534 60.4228 203.199L54.3943 197.94ZM73.2773 189.876C71.6634 191.385 69.1322 191.3 67.6237 189.686C66.1152 188.072 66.2005 185.541 67.8144 184.032L73.2773 189.876ZM69.2319 182.721C70.8616 181.23 73.3918 181.342 74.8832 182.972C76.3745 184.601 76.2623 187.132 74.6326 188.623L69.2319 182.721ZM88.9271 176.904C87.1437 178.208 84.6411 177.819 83.3372 176.036C82.0334 174.252 82.4221 171.75 84.2055 170.446L88.9271 176.904ZM85.8503 169.258C87.6481 167.974 90.1462 168.39 91.4302 170.188C92.7141 171.986 92.2976 174.484 90.4999 175.768L85.8503 169.258ZM107.287 165.124C105.358 166.2 102.921 165.508 101.845 163.579C100.769 161.649 101.461 159.213 103.391 158.137L107.287 165.124ZM105.227 157.127C107.168 156.073 109.596 156.793 110.65 158.735C111.704 160.677 110.984 163.105 109.042 164.159L105.227 157.127ZM127.015 155.705C124.966 156.529 122.636 155.536 121.812 153.487C120.987 151.437 121.98 149.107 124.03 148.283L127.015 155.705ZM125.963 147.518C128.022 146.717 130.34 147.737 131.141 149.795C131.942 151.854 130.923 154.172 128.864 154.974L125.963 147.518ZM147.765 148.784C145.633 149.36 143.437 148.098 142.861 145.966C142.285 143.833 143.547 141.637 145.68 141.061L147.765 148.784ZM147.679 140.532C149.817 139.977 152 141.261 152.555 143.399C153.11 145.538 151.826 147.721 149.687 148.276L147.679 140.532ZM169.231 144.171C167.051 144.53 164.993 143.055 164.633 140.875C164.274 138.695 165.749 136.637 167.929 136.277L169.231 144.171ZM169.968 135.949C172.15 135.607 174.197 137.099 174.539 139.281C174.881 141.464 173.39 143.511 171.207 143.853L169.968 135.949ZM191.123 141.454C188.922 141.648 186.981 140.021 186.787 137.82C186.593 135.62 188.22 133.679 190.42 133.485L191.123 141.454ZM192.471 133.31C194.672 133.128 196.605 134.765 196.786 136.967C196.968 139.169 195.331 141.101 193.129 141.282L192.471 133.31ZM213.257 140.097C211.049 140.183 209.19 138.463 209.104 136.256C209.018 134.048 210.738 132.189 212.945 132.103L213.257 140.097ZM214.986 132.027C217.194 131.948 219.048 133.674 219.127 135.881C219.206 138.089 217.48 139.943 215.272 140.022L214.986 132.027ZM235.52 139.536C233.312 139.571 231.493 137.808 231.458 135.599C231.424 133.39 233.187 131.572 235.395 131.537L235.52 139.536ZM237.433 131.506C239.642 131.474 241.459 133.238 241.491 135.447C241.524 137.656 239.76 139.473 237.551 139.505L237.433 131.506ZM257.893 139.223C255.684 139.259 253.864 137.497 253.829 135.288C253.793 133.08 255.555 131.26 257.764 131.225L257.893 139.223ZM259.797 131.191C262.006 131.152 263.828 132.912 263.866 135.121C263.904 137.33 262.144 139.151 259.936 139.189L259.797 131.191ZM280.347 138.65C278.139 138.735 276.281 137.014 276.196 134.807C276.111 132.599 277.832 130.741 280.04 130.656L280.347 138.65ZM282.055 130.576C284.263 130.484 286.126 132.199 286.217 134.407C286.309 136.614 284.594 138.477 282.387 138.569L282.055 130.576ZM302.839 137.348C300.637 137.525 298.708 135.884 298.531 133.682C298.354 131.48 299.995 129.551 302.197 129.374L302.839 137.348ZM304.204 129.207C306.406 129.019 308.342 130.652 308.53 132.853C308.717 135.054 307.085 136.991 304.884 137.178L304.204 129.207ZM325.307 134.897C323.119 135.204 321.097 133.68 320.789 131.492C320.482 129.305 322.007 127.282 324.194 126.975L325.307 134.897ZM326.187 126.689C328.373 126.368 330.405 127.88 330.725 130.066C331.046 132.251 329.534 134.283 327.348 134.604L326.187 126.689ZM347.619 130.95C345.46 131.416 343.331 130.043 342.865 127.884C342.399 125.725 343.772 123.596 345.931 123.13L347.619 130.95ZM347.9 122.697C350.055 122.216 352.194 123.573 352.676 125.729C353.157 127.885 351.8 130.023 349.644 130.505L347.9 122.697ZM369.593 125.259C367.48 125.902 365.245 124.71 364.602 122.597C363.959 120.483 365.151 118.249 367.264 117.606L369.593 125.259ZM369.181 117.014C371.289 116.355 373.533 117.529 374.193 119.637C374.853 121.746 373.678 123.99 371.57 124.649L369.181 117.014ZM391.015 117.708C388.966 118.533 386.636 117.541 385.811 115.491C384.986 113.442 385.978 111.112 388.027 110.287L391.015 117.708ZM389.837 109.549C391.878 108.706 394.218 109.677 395.061 111.718C395.905 113.76 394.934 116.099 392.892 116.943L389.837 109.549ZM410.603 108.595C408.651 109.629 406.23 108.885 405.196 106.933C404.162 104.981 404.906 102.56 406.858 101.525L410.603 108.595ZM408.517 100.637C410.46 99.5857 412.887 100.308 413.939 102.251C414.99 104.194 414.268 106.621 412.325 107.673L408.517 100.637ZM429.095 97.6509C427.246 98.8607 424.767 98.3431 423.557 96.4947C422.347 94.6463 422.865 92.1671 424.713 90.9572L429.095 97.6509ZM426.289 89.917C428.128 88.6928 430.611 89.1912 431.835 91.0301C433.06 92.869 432.561 95.3522 430.722 96.5763L426.289 89.917ZM446.535 85.1779C444.791 86.533 442.278 86.2173 440.923 84.4726C439.567 82.7279 439.883 80.215 441.628 78.8599L446.535 85.1779ZM443.12 77.6924C444.856 76.3254 447.371 76.6239 448.738 78.3593C450.105 80.0946 449.806 82.6096 448.071 83.9767L443.12 77.6924ZM462.953 71.4397C461.309 72.9158 458.78 72.7801 457.304 71.1366C455.828 69.4931 455.964 66.964 457.607 65.4879L462.953 71.4397ZM459.016 64.2149C460.65 62.7287 463.18 62.849 464.666 64.4835C466.152 66.118 466.032 68.6478 464.398 70.1339L459.016 64.2149ZM478.388 56.6389C476.843 58.2176 474.31 58.2446 472.731 56.6993C471.153 55.1539 471.126 52.6214 472.671 51.0427L478.388 56.6389ZM473.989 49.6888C475.526 48.1016 478.058 48.0605 479.645 49.5971C481.232 51.1336 481.273 53.6659 479.737 55.2532L473.989 49.6888ZM492.85 40.9482C491.401 42.6162 488.875 42.7941 487.207 41.3456C485.539 39.8972 485.361 37.3707 486.809 35.7028L492.85 40.9482ZM488.067 34.2461C489.507 32.5703 492.032 32.3788 493.708 33.8183C495.384 35.2577 495.575 37.7832 494.136 39.4589L488.067 34.2461ZM506.393 24.3923C505.046 26.1434 502.534 26.471 500.783 25.1241C499.032 23.7771 498.705 21.2658 500.052 19.5147L506.393 24.3923ZM501.197 18.0169C502.534 16.2583 505.044 15.9166 506.802 17.2536C508.561 18.5907 508.902 21.1002 507.565 22.8588L501.197 18.0169ZM518.856 6.95901C517.656 8.81384 515.179 9.3447 513.325 8.14473C511.47 6.94476 510.939 4.46836 512.139 2.61353L518.856 6.95901ZM4 313C0.0504656 312.367 0.0504777 312.367 0.0504901 312.366C0.0504945 312.366 0.050507 312.366 0.0505158 312.366C0.0505332 312.366 0.0505515 312.366 0.0505705 312.366C0.0506086 312.366 0.0506497 312.365 0.0506939 312.365C0.0507823 312.365 0.050883 312.364 0.050996 312.363C0.0512221 312.362 0.0514975 312.36 0.0518225 312.358C0.0524725 312.354 0.0533208 312.349 0.0543694 312.342C0.0564667 312.33 0.0593652 312.312 0.0630811 312.289C0.0705127 312.245 0.0812136 312.181 0.0953112 312.098C0.123506 311.932 0.16529 311.692 0.221684 311.381L8.09364 312.807C8.04223 313.091 8.00518 313.304 7.98149 313.442C7.96965 313.512 7.96115 313.563 7.95587 313.595C7.95322 313.611 7.95139 313.622 7.95034 313.628C7.94981 313.632 7.94948 313.634 7.94935 313.635C7.94928 313.635 7.94927 313.635 7.9493 313.635C7.94931 313.635 7.94934 313.635 7.94938 313.634C7.9494 313.634 7.94942 313.634 7.94945 313.634C7.94946 313.634 7.94947 313.634 7.94949 313.634C7.9495 313.634 7.94951 313.634 7.94951 313.634C7.94952 313.633 7.94953 313.633 4 313ZM4.70197 292.604C4.87257 292.002 5.04864 291.389 5.23031 290.765L12.9113 293.002C12.7351 293.607 12.5644 294.201 12.399 294.785L4.70197 292.604ZM11.2487 272.524C11.4716 271.92 11.6985 271.311 11.9295 270.699L19.4151 273.521C19.1908 274.116 18.9705 274.707 18.754 275.293L11.2487 272.524ZM19.3235 252.995C19.5896 252.417 19.859 251.837 20.1318 251.255L27.3748 254.652C27.1102 255.216 26.849 255.778 26.5911 256.339L19.3235 252.995ZM28.9442 234.164C29.2601 233.606 29.5793 233.046 29.9018 232.486L36.8341 236.479C36.5223 237.02 36.2137 237.561 35.9081 238.102L28.9442 234.164ZM40.1885 216.215C40.555 215.686 40.9246 215.158 41.2975 214.63L47.8316 219.246C47.4724 219.754 47.1162 220.263 46.7631 220.773L40.1885 216.215ZM53.1304 199.403C53.5486 198.914 53.9698 198.426 54.3943 197.94L60.4228 203.199C60.0155 203.665 59.6112 204.134 59.2099 204.603L53.1304 199.403ZM67.8144 184.032C68.2838 183.593 68.7563 183.156 69.2319 182.721L74.6326 188.623C74.1779 189.039 73.7262 189.457 73.2773 189.876L67.8144 184.032ZM84.2055 170.446C84.4676 170.254 84.7306 170.063 84.9943 169.872L89.6792 176.357C89.4277 176.539 89.177 176.721 88.9271 176.904L84.2055 170.446ZM84.9943 169.872C85.2795 169.666 85.5649 169.461 85.8503 169.258L90.4999 175.768C90.2263 175.963 89.9527 176.16 89.6792 176.357L84.9943 169.872ZM103.391 158.137C104.002 157.796 104.614 157.459 105.227 157.127L109.042 164.159C108.457 164.476 107.872 164.798 107.287 165.124L103.391 158.137ZM124.03 148.283C124.674 148.024 125.318 147.769 125.963 147.518L128.864 154.974C128.247 155.214 127.631 155.457 127.015 155.705L124.03 148.283ZM145.68 141.061C146.346 140.881 147.012 140.705 147.679 140.532L149.687 148.276C149.046 148.442 148.406 148.611 147.765 148.784L145.68 141.061ZM167.929 136.277C168.608 136.165 169.288 136.056 169.968 135.949L171.207 143.853C170.548 143.956 169.889 144.062 169.231 144.171L167.929 136.277ZM190.42 133.485C191.104 133.424 191.787 133.366 192.471 133.31L193.129 141.282C192.46 141.338 191.791 141.395 191.123 141.454L190.42 133.485ZM212.945 132.103C213.625 132.077 214.306 132.051 214.986 132.027L215.272 140.022C214.6 140.046 213.928 140.071 213.257 140.097L212.945 132.103ZM235.395 131.537C236.074 131.526 236.754 131.516 237.433 131.506L237.551 139.505C236.873 139.515 236.197 139.525 235.52 139.536L235.395 131.537ZM257.764 131.225C258.441 131.214 259.119 131.202 259.797 131.191L259.936 139.189C259.254 139.201 258.573 139.213 257.893 139.223L257.764 131.225ZM280.04 130.656C280.711 130.63 281.383 130.603 282.055 130.576L282.387 138.569C281.706 138.597 281.026 138.624 280.347 138.65L280.04 130.656ZM302.197 129.374C302.866 129.32 303.535 129.264 304.204 129.207L304.884 137.178C304.202 137.236 303.52 137.293 302.839 137.348L302.197 129.374ZM324.194 126.975C324.858 126.882 325.522 126.786 326.187 126.689L327.348 134.604C326.667 134.704 325.987 134.802 325.307 134.897L324.194 126.975ZM345.931 123.13C346.587 122.988 347.243 122.844 347.9 122.697L349.644 130.505C348.969 130.656 348.294 130.804 347.619 130.95L345.931 123.13ZM367.264 117.606C367.903 117.411 368.542 117.214 369.181 117.014L371.57 124.649C370.91 124.855 370.252 125.059 369.593 125.259L367.264 117.606ZM388.027 110.287C388.34 110.161 388.652 110.034 388.965 109.907L391.983 117.316C391.66 117.447 391.338 117.578 391.015 117.708L388.027 110.287ZM388.965 109.907C389.256 109.789 389.547 109.669 389.837 109.549L392.892 116.943C392.59 117.068 392.287 117.192 391.983 117.316L388.965 109.907ZM406.858 101.525C407.413 101.232 407.966 100.936 408.517 100.637L412.325 107.673C411.753 107.982 411.179 108.29 410.603 108.595L406.858 101.525ZM424.713 90.9572C425.241 90.6122 425.766 90.2654 426.289 89.917L430.722 96.5763C430.182 96.9362 429.639 97.2944 429.095 97.6509L424.713 90.9572ZM441.628 78.8599C442.128 78.4717 442.625 78.0826 443.12 77.6924L448.071 83.9767C447.561 84.378 447.05 84.7785 446.535 85.1779L441.628 78.8599ZM457.607 65.4879C458.079 65.0638 458.549 64.6394 459.016 64.2149L464.398 70.1339C463.919 70.5693 463.437 71.0046 462.953 71.4397L457.607 65.4879ZM472.671 51.0427C473.114 50.5905 473.553 50.1392 473.989 49.6888L479.737 55.2532C479.291 55.7141 478.841 56.1761 478.388 56.6389L472.671 51.0427ZM486.809 35.7028C487.233 35.2143 487.653 34.7287 488.067 34.2461L494.136 39.4589C493.712 39.9523 493.283 40.4488 492.85 40.9482L486.809 35.7028ZM500.052 19.5147C500.442 19.0071 500.824 18.5077 501.197 18.0169L507.565 22.8588C507.183 23.3613 506.792 23.8727 506.393 24.3923L500.052 19.5147ZM512.139 2.61353C512.3 2.36497 512.42 2.17753 512.498 2.0544C512.537 1.99284 512.566 1.94736 512.584 1.91835C512.593 1.90384 512.6 1.89346 512.603 1.88725C512.605 1.88414 512.607 1.88207 512.607 1.88106C512.608 1.88055 512.608 1.8803 512.608 1.88032C512.608 1.88033 512.608 1.8804 512.608 1.88054C512.608 1.88061 512.608 1.8807 512.608 1.8808C512.607 1.88085 512.607 1.88091 512.607 1.88097C512.607 1.881 512.607 1.88104 512.607 1.88106C512.607 1.88111 512.607 1.88116 516 3.99999C519.393 6.11881 519.393 6.11887 519.393 6.11892C519.393 6.11894 519.393 6.11899 519.393 6.11903C519.393 6.11911 519.392 6.11919 519.392 6.11927C519.392 6.11944 519.392 6.11962 519.392 6.11983C519.392 6.12023 519.392 6.1207 519.391 6.12124C519.391 6.12231 519.39 6.12364 519.389 6.12524C519.387 6.12844 519.384 6.1327 519.381 6.13799C519.374 6.14859 519.365 6.16338 519.353 6.1823C519.329 6.22014 519.295 6.27453 519.25 6.34508C519.16 6.48617 519.029 6.69188 518.856 6.95901L512.139 2.61353Z" fill="#EEEEEE"/>
</svg>
