<svg width="1448" height="89" viewBox="0 0 1448 89" fill="none" xmlns="http://www.w3.org/2000/svg">
<g filter="url(#filter0_bd_533_1189)">
<rect width="1440" height="81" transform="translate(4)" fill="white" fill-opacity="0.6"/>
<path d="M89.4403 27.89C90.7283 27.89 91.7923 27.848 92.6323 27.764V28.604C91.9323 28.856 91.2463 29.388 90.5743 30.2C89.9023 31.012 89.3003 32.146 88.7683 33.602L79.9063 57.584C79.5983 57.556 79.1083 57.542 78.4363 57.542C77.7923 57.542 77.3163 57.556 77.0083 57.584L66.2983 31.292C65.9343 30.368 65.5143 29.696 65.0383 29.276C64.5623 28.856 64.1003 28.632 63.6522 28.604V27.764C65.3323 27.848 67.4603 27.89 70.0363 27.89C72.9203 27.89 75.0483 27.848 76.4203 27.764V28.604C75.3563 28.66 74.6003 28.786 74.1523 28.982C73.7043 29.178 73.4803 29.57 73.4803 30.158C73.4803 30.634 73.6483 31.292 73.9843 32.132L81.3763 50.948L86.5423 37.004C87.3263 34.848 87.7183 33.14 87.7183 31.88C87.7183 30.76 87.4103 29.948 86.7943 29.444C86.2063 28.94 85.3383 28.66 84.1903 28.604V27.764C86.0943 27.848 87.8443 27.89 89.4403 27.89ZM95.7278 57.794C93.9358 57.794 92.5918 57.332 91.6958 56.408C90.8278 55.484 90.3938 54.266 90.3938 52.754C90.3938 51.494 90.7158 50.458 91.3598 49.646C92.0318 48.806 92.8298 48.162 93.7538 47.714C94.7058 47.266 95.9098 46.79 97.3658 46.286C98.9058 45.754 100.026 45.278 100.726 44.858C101.454 44.41 101.818 43.808 101.818 43.052V39.776C101.818 38.6 101.538 37.69 100.978 37.046C100.446 36.374 99.6058 36.038 98.4578 36.038C97.1138 36.038 96.0918 36.374 95.3918 37.046C96.1758 37.326 96.7778 37.746 97.1978 38.306C97.6458 38.866 97.8698 39.524 97.8698 40.28C97.8698 41.232 97.5478 41.988 96.9038 42.548C96.2598 43.108 95.4758 43.388 94.5518 43.388C93.5718 43.388 92.8158 43.08 92.2838 42.464C91.7518 41.848 91.4858 41.078 91.4858 40.154C91.4858 39.37 91.6678 38.712 92.0318 38.18C92.4238 37.62 93.0118 37.102 93.7958 36.626C94.5518 36.178 95.4758 35.828 96.5678 35.576C97.6878 35.324 98.9058 35.198 100.222 35.198C101.594 35.198 102.784 35.338 103.792 35.618C104.8 35.898 105.64 36.374 106.312 37.046C106.928 37.662 107.334 38.418 107.53 39.314C107.754 40.21 107.866 41.428 107.866 42.968V54.392C107.866 55.064 107.922 55.54 108.034 55.82C108.174 56.1 108.426 56.24 108.79 56.24C109.21 56.24 109.714 56.002 110.302 55.526L110.722 56.24C109.462 57.276 107.922 57.794 106.102 57.794C104.562 57.794 103.484 57.486 102.868 56.87C102.252 56.254 101.93 55.428 101.902 54.392C100.502 56.66 98.4438 57.794 95.7278 57.794ZM98.9618 55.106C100.054 55.106 101.006 54.532 101.818 53.384V44.774C101.482 45.334 100.768 45.95 99.6758 46.622C98.5838 47.322 97.7578 48.022 97.1978 48.722C96.6378 49.422 96.3578 50.43 96.3578 51.746C96.3578 52.894 96.5958 53.748 97.0718 54.308C97.5478 54.84 98.1778 55.106 98.9618 55.106ZM132.586 52.88C132.586 54.168 132.782 55.106 133.174 55.694C133.566 56.282 134.266 56.576 135.274 56.576V57.458C134.406 57.374 133.538 57.332 132.67 57.332C130.178 57.332 128.134 57.528 126.538 57.92V54.308C125.586 56.828 123.766 58.088 121.078 58.088C118.446 58.088 116.346 57.136 114.778 55.232C113.238 53.3 112.482 50.402 112.51 46.538C112.51 44.074 112.902 42.002 113.686 40.322C114.498 38.614 115.604 37.34 117.004 36.5C118.432 35.632 120.056 35.198 121.876 35.198C123.92 35.198 125.474 35.73 126.538 36.794V29.654C126.538 28.366 126.328 27.428 125.908 26.84C125.516 26.252 124.83 25.958 123.85 25.958V25.076C124.746 25.16 125.614 25.202 126.454 25.202C128.89 25.202 130.934 25.006 132.586 24.614V52.88ZM122.8 56.282C123.724 56.282 124.536 55.946 125.236 55.274C125.964 54.602 126.398 53.692 126.538 52.544V37.844C125.838 36.892 124.816 36.416 123.472 36.416C121.988 36.416 120.84 37.27 120.028 38.978C119.216 40.686 118.824 43.234 118.852 46.622C118.824 50.038 119.146 52.502 119.818 54.014C120.518 55.526 121.512 56.282 122.8 56.282ZM149.372 54.644C151.668 54.644 153.516 53.524 154.916 51.284L155.672 51.536C155.112 53.356 154.104 54.91 152.648 56.198C151.22 57.458 149.428 58.088 147.272 58.088C144.304 58.088 141.938 57.15 140.174 55.274C138.438 53.37 137.57 50.57 137.57 46.874C137.57 43.094 138.508 40.21 140.384 38.222C142.26 36.206 144.752 35.198 147.86 35.198C153.124 35.198 155.756 38.306 155.756 44.522H143.954C143.926 44.942 143.912 45.6 143.912 46.496C143.912 48.344 144.164 49.884 144.668 51.116C145.2 52.348 145.872 53.244 146.684 53.804C147.524 54.364 148.42 54.644 149.372 54.644ZM147.608 36.08C146.6 36.08 145.76 36.71 145.088 37.97C144.444 39.202 144.038 41.12 143.87 43.724H150.464C150.52 41.512 150.296 39.692 149.792 38.264C149.316 36.808 148.588 36.08 147.608 36.08ZM178.91 27.218C180.366 27.218 181.528 27.358 182.396 27.638C183.264 27.918 184.146 28.324 185.042 28.856C185.35 29.024 185.616 29.164 185.84 29.276C186.092 29.388 186.302 29.444 186.47 29.444C186.722 29.444 186.918 29.304 187.058 29.024C187.198 28.716 187.31 28.24 187.394 27.596H188.36C188.22 29.472 188.15 32.664 188.15 37.172H187.184C187.072 35.66 186.722 34.218 186.134 32.846C185.574 31.474 184.762 30.368 183.698 29.528C182.662 28.66 181.444 28.226 180.044 28.226C178.672 28.226 177.552 28.618 176.684 29.402C175.844 30.158 175.424 31.194 175.424 32.51C175.424 33.49 175.634 34.344 176.054 35.072C176.474 35.8 177.062 36.472 177.818 37.088C178.574 37.676 179.736 38.488 181.304 39.524L182.648 40.448C184.3 41.54 185.602 42.492 186.554 43.304C187.506 44.116 188.276 45.068 188.864 46.16C189.48 47.224 189.788 48.47 189.788 49.898C189.788 51.69 189.326 53.202 188.402 54.434C187.478 55.638 186.218 56.548 184.622 57.164C183.054 57.78 181.304 58.088 179.372 58.088C177.804 58.088 176.502 57.948 175.466 57.668C174.43 57.388 173.478 57.01 172.61 56.534C171.994 56.142 171.518 55.946 171.182 55.946C170.93 55.946 170.734 56.1 170.594 56.408C170.454 56.688 170.342 57.15 170.258 57.794H169.292C169.404 56.03 169.46 52.25 169.46 46.454H170.426C170.622 49.59 171.322 52.138 172.526 54.098C173.73 56.03 175.578 56.996 178.07 56.996C179.582 56.996 180.828 56.59 181.808 55.778C182.788 54.966 183.278 53.804 183.278 52.292C183.278 50.724 182.774 49.38 181.766 48.26C180.758 47.14 179.162 45.88 176.978 44.48C175.298 43.388 173.954 42.436 172.946 41.624C171.938 40.812 171.112 39.86 170.468 38.768C169.824 37.648 169.502 36.36 169.502 34.904C169.502 33.224 169.922 31.81 170.762 30.662C171.63 29.486 172.778 28.618 174.206 28.058C175.634 27.498 177.202 27.218 178.91 27.218ZM201.044 35.786H206V36.626H201.044V53.594C201.044 54.434 201.184 55.036 201.464 55.4C201.772 55.736 202.248 55.904 202.892 55.904C204.096 55.904 205.048 55.064 205.748 53.384L206.462 53.762C205.398 56.646 203.48 58.088 200.708 58.088C198.86 58.088 197.46 57.612 196.508 56.66C195.92 56.072 195.514 55.344 195.29 54.476C195.094 53.58 194.996 52.362 194.996 50.822V36.626H191.468V35.786H194.996V30.242C197.32 30.242 199.336 29.794 201.044 28.898V35.786ZM228.199 52.922C228.199 54.21 228.395 55.148 228.787 55.736C229.207 56.324 229.907 56.618 230.887 56.618V57.5C230.019 57.416 229.151 57.374 228.283 57.374C225.847 57.374 223.803 57.57 222.151 57.962V54.182C220.863 56.786 218.609 58.088 215.389 58.088C213.289 58.088 211.763 57.542 210.811 56.45C210.363 55.918 210.027 55.232 209.803 54.392C209.607 53.524 209.509 52.39 209.509 50.99V40.364C209.509 39.076 209.299 38.138 208.879 37.55C208.487 36.962 207.801 36.668 206.821 36.668V35.786C207.689 35.87 208.557 35.912 209.425 35.912C211.861 35.912 213.905 35.716 215.557 35.324V52.712C215.557 53.888 215.725 54.77 216.061 55.358C216.425 55.946 217.097 56.24 218.077 56.24C219.197 56.24 220.149 55.778 220.933 54.854C221.745 53.902 222.151 52.74 222.151 51.368V40.364C222.151 39.076 221.941 38.138 221.521 37.55C221.129 36.962 220.443 36.668 219.463 36.668V35.786C220.359 35.87 221.227 35.912 222.067 35.912C224.503 35.912 226.547 35.716 228.199 35.324V52.922ZM253.418 52.88C253.418 54.168 253.614 55.106 254.006 55.694C254.398 56.282 255.098 56.576 256.106 56.576V57.458C255.238 57.374 254.37 57.332 253.502 57.332C251.01 57.332 248.966 57.528 247.37 57.92V54.308C246.418 56.828 244.598 58.088 241.91 58.088C239.278 58.088 237.178 57.136 235.61 55.232C234.07 53.3 233.314 50.402 233.342 46.538C233.342 44.074 233.734 42.002 234.518 40.322C235.33 38.614 236.436 37.34 237.836 36.5C239.264 35.632 240.888 35.198 242.708 35.198C244.752 35.198 246.306 35.73 247.37 36.794V29.654C247.37 28.366 247.16 27.428 246.74 26.84C246.348 26.252 245.662 25.958 244.682 25.958V25.076C245.578 25.16 246.446 25.202 247.286 25.202C249.722 25.202 251.766 25.006 253.418 24.614V52.88ZM243.632 56.282C244.556 56.282 245.368 55.946 246.068 55.274C246.796 54.602 247.23 53.692 247.37 52.544V37.844C246.67 36.892 245.648 36.416 244.304 36.416C242.82 36.416 241.672 37.27 240.86 38.978C240.048 40.686 239.656 43.234 239.684 46.622C239.656 50.038 239.978 52.502 240.65 54.014C241.35 55.526 242.344 56.282 243.632 56.282ZM263.316 24.95C264.492 24.95 265.416 25.244 266.088 25.832C266.788 26.392 267.138 27.176 267.138 28.184C267.138 29.192 266.788 29.99 266.088 30.578C265.416 31.138 264.492 31.418 263.316 31.418C262.14 31.418 261.202 31.138 260.502 30.578C259.83 29.99 259.494 29.192 259.494 28.184C259.494 27.176 259.83 26.392 260.502 25.832C261.202 25.244 262.14 24.95 263.316 24.95ZM266.592 53.594C266.592 54.742 266.788 55.54 267.18 55.988C267.6 56.408 268.3 56.618 269.28 56.618V57.5C266.48 57.388 264.618 57.332 263.694 57.332C262.826 57.332 260.88 57.388 257.856 57.5V56.618C258.864 56.618 259.564 56.408 259.956 55.988C260.348 55.54 260.544 54.742 260.544 53.594V40.364C260.544 39.076 260.348 38.138 259.956 37.55C259.564 36.962 258.864 36.668 257.856 36.668V35.786C258.752 35.87 259.62 35.912 260.46 35.912C262.952 35.912 264.996 35.716 266.592 35.324V53.594ZM281.94 35.198C285.16 35.198 287.68 36.122 289.5 37.97C291.32 39.79 292.23 42.688 292.23 46.664C292.23 50.64 291.32 53.538 289.5 55.358C287.68 57.178 285.16 58.088 281.94 58.088C278.748 58.088 276.228 57.178 274.38 55.358C272.56 53.538 271.65 50.64 271.65 46.664C271.65 42.688 272.56 39.79 274.38 37.97C276.228 36.122 278.748 35.198 281.94 35.198ZM281.94 36.038C280.736 36.038 279.77 36.92 279.042 38.684C278.342 40.42 277.992 43.08 277.992 46.664C277.992 50.248 278.342 52.908 279.042 54.644C279.77 56.38 280.736 57.248 281.94 57.248C283.172 57.248 284.138 56.394 284.838 54.686C285.538 52.95 285.888 50.276 285.888 46.664C285.888 43.052 285.524 40.378 284.796 38.642C284.096 36.906 283.144 36.038 281.94 36.038Z" fill="#8B12FC"/>
<path d="M473.524 47.126C472.696 47.126 471.952 46.982 471.292 46.694C470.644 46.394 470.134 45.986 469.762 45.47C469.39 44.942 469.198 44.336 469.186 43.652H470.932C470.992 44.24 471.232 44.738 471.652 45.146C472.084 45.542 472.708 45.74 473.524 45.74C474.304 45.74 474.916 45.548 475.36 45.164C475.816 44.768 476.044 44.264 476.044 43.652C476.044 43.172 475.912 42.782 475.648 42.482C475.384 42.182 475.054 41.954 474.658 41.798C474.262 41.642 473.728 41.474 473.056 41.294C472.228 41.078 471.562 40.862 471.058 40.646C470.566 40.43 470.14 40.094 469.78 39.638C469.432 39.17 469.258 38.546 469.258 37.766C469.258 37.082 469.432 36.476 469.78 35.948C470.128 35.42 470.614 35.012 471.238 34.724C471.874 34.436 472.6 34.292 473.416 34.292C474.592 34.292 475.552 34.586 476.296 35.174C477.052 35.762 477.478 36.542 477.574 37.514H475.774C475.714 37.034 475.462 36.614 475.018 36.254C474.574 35.882 473.986 35.696 473.254 35.696C472.57 35.696 472.012 35.876 471.58 36.236C471.148 36.584 470.932 37.076 470.932 37.712C470.932 38.168 471.058 38.54 471.31 38.828C471.574 39.116 471.892 39.338 472.264 39.494C472.648 39.638 473.182 39.806 473.866 39.998C474.694 40.226 475.36 40.454 475.864 40.682C476.368 40.898 476.8 41.24 477.16 41.708C477.52 42.164 477.7 42.788 477.7 43.58C477.7 44.192 477.538 44.768 477.214 45.308C476.89 45.848 476.41 46.286 475.774 46.622C475.138 46.958 474.388 47.126 473.524 47.126ZM485.619 47L481.749 42.644V47H480.111V33.68H481.749V41.51L485.547 37.136H487.833L483.189 42.05L487.851 47H485.619ZM490.22 35.534C489.908 35.534 489.644 35.426 489.428 35.21C489.212 34.994 489.104 34.73 489.104 34.418C489.104 34.106 489.212 33.842 489.428 33.626C489.644 33.41 489.908 33.302 490.22 33.302C490.52 33.302 490.772 33.41 490.976 33.626C491.192 33.842 491.3 34.106 491.3 34.418C491.3 34.73 491.192 34.994 490.976 35.21C490.772 35.426 490.52 35.534 490.22 35.534ZM491.012 37.136V47H489.374V37.136H491.012ZM495.442 38.954C495.766 38.39 496.246 37.922 496.882 37.55C497.53 37.166 498.28 36.974 499.132 36.974C500.008 36.974 500.8 37.184 501.508 37.604C502.228 38.024 502.792 38.618 503.2 39.386C503.608 40.142 503.812 41.024 503.812 42.032C503.812 43.028 503.608 43.916 503.2 44.696C502.792 45.476 502.228 46.082 501.508 46.514C500.8 46.946 500.008 47.162 499.132 47.162C498.292 47.162 497.548 46.976 496.9 46.604C496.264 46.22 495.778 45.746 495.442 45.182V51.68H493.804V37.136H495.442V38.954ZM502.138 42.032C502.138 41.288 501.988 40.64 501.688 40.088C501.388 39.536 500.98 39.116 500.464 38.828C499.96 38.54 499.402 38.396 498.79 38.396C498.19 38.396 497.632 38.546 497.116 38.846C496.612 39.134 496.204 39.56 495.892 40.124C495.592 40.676 495.442 41.318 495.442 42.05C495.442 42.794 495.592 43.448 495.892 44.012C496.204 44.564 496.612 44.99 497.116 45.29C497.632 45.578 498.19 45.722 498.79 45.722C499.402 45.722 499.96 45.578 500.464 45.29C500.98 44.99 501.388 44.564 501.688 44.012C501.988 43.448 502.138 42.788 502.138 42.032ZM512.765 38.486V44.3C512.765 44.78 512.867 45.122 513.071 45.326C513.275 45.518 513.629 45.614 514.133 45.614H515.339V47H513.863C512.951 47 512.267 46.79 511.811 46.37C511.355 45.95 511.127 45.26 511.127 44.3V38.486H509.849V37.136H511.127V34.652H512.765V37.136H515.339V38.486H512.765ZM522.22 36.956C522.964 36.956 523.636 37.118 524.236 37.442C524.836 37.754 525.304 38.228 525.64 38.864C525.988 39.5 526.162 40.274 526.162 41.186V47H524.542V41.42C524.542 40.436 524.296 39.686 523.804 39.17C523.312 38.642 522.64 38.378 521.788 38.378C520.924 38.378 520.234 38.648 519.718 39.188C519.214 39.728 518.962 40.514 518.962 41.546V47H517.324V33.68H518.962V38.54C519.286 38.036 519.73 37.646 520.294 37.37C520.87 37.094 521.512 36.956 522.22 36.956ZM537.837 41.69C537.837 42.002 537.819 42.332 537.783 42.68H529.899C529.959 43.652 530.289 44.414 530.889 44.966C531.501 45.506 532.239 45.776 533.103 45.776C533.811 45.776 534.399 45.614 534.867 45.29C535.347 44.954 535.683 44.51 535.875 43.958H537.639C537.375 44.906 536.847 45.68 536.055 46.28C535.263 46.868 534.279 47.162 533.103 47.162C532.167 47.162 531.327 46.952 530.583 46.532C529.851 46.112 529.275 45.518 528.855 44.75C528.435 43.97 528.225 43.07 528.225 42.05C528.225 41.03 528.429 40.136 528.837 39.368C529.245 38.6 529.815 38.012 530.547 37.604C531.291 37.184 532.143 36.974 533.103 36.974C534.039 36.974 534.867 37.178 535.587 37.586C536.307 37.994 536.859 38.558 537.243 39.278C537.639 39.986 537.837 40.79 537.837 41.69ZM536.145 41.348C536.145 40.724 536.007 40.19 535.731 39.746C535.455 39.29 535.077 38.948 534.597 38.72C534.129 38.48 533.607 38.36 533.031 38.36C532.203 38.36 531.495 38.624 530.907 39.152C530.331 39.68 530.001 40.412 529.917 41.348H536.145ZM549.694 36.956C550.438 36.956 551.11 37.118 551.71 37.442C552.31 37.754 552.778 38.228 553.114 38.864C553.462 39.5 553.636 40.274 553.636 41.186V47H552.016V41.42C552.016 40.436 551.77 39.686 551.278 39.17C550.786 38.642 550.114 38.378 549.262 38.378C548.398 38.378 547.708 38.648 547.192 39.188C546.688 39.728 546.436 40.514 546.436 41.546V47H544.798V33.68H546.436V38.54C546.76 38.036 547.204 37.646 547.768 37.37C548.344 37.094 548.986 36.956 549.694 36.956ZM565.06 37.136V47H563.422V45.542C563.11 46.046 562.672 46.442 562.108 46.73C561.556 47.006 560.944 47.144 560.272 47.144C559.504 47.144 558.814 46.988 558.202 46.676C557.59 46.352 557.104 45.872 556.744 45.236C556.396 44.6 556.222 43.826 556.222 42.914V37.136H557.842V42.698C557.842 43.67 558.088 44.42 558.58 44.948C559.072 45.464 559.744 45.722 560.596 45.722C561.472 45.722 562.162 45.452 562.666 44.912C563.17 44.372 563.422 43.586 563.422 42.554V37.136H565.06ZM571.317 47.162C570.561 47.162 569.883 47.036 569.283 46.784C568.683 46.52 568.209 46.16 567.861 45.704C567.513 45.236 567.321 44.702 567.285 44.102H568.977C569.025 44.594 569.253 44.996 569.661 45.308C570.081 45.62 570.627 45.776 571.299 45.776C571.923 45.776 572.415 45.638 572.775 45.362C573.135 45.086 573.315 44.738 573.315 44.318C573.315 43.886 573.123 43.568 572.739 43.364C572.355 43.148 571.761 42.938 570.957 42.734C570.225 42.542 569.625 42.35 569.157 42.158C568.701 41.954 568.305 41.66 567.969 41.276C567.645 40.88 567.483 40.364 567.483 39.728C567.483 39.224 567.633 38.762 567.933 38.342C568.233 37.922 568.659 37.592 569.211 37.352C569.763 37.1 570.393 36.974 571.101 36.974C572.193 36.974 573.075 37.25 573.747 37.802C574.419 38.354 574.779 39.11 574.827 40.07H573.189C573.153 39.554 572.943 39.14 572.559 38.828C572.187 38.516 571.683 38.36 571.047 38.36C570.459 38.36 569.991 38.486 569.643 38.738C569.295 38.99 569.121 39.32 569.121 39.728C569.121 40.052 569.223 40.322 569.427 40.538C569.643 40.742 569.907 40.91 570.219 41.042C570.543 41.162 570.987 41.3 571.551 41.456C572.259 41.648 572.835 41.84 573.279 42.032C573.723 42.212 574.101 42.488 574.413 42.86C574.737 43.232 574.905 43.718 574.917 44.318C574.917 44.858 574.767 45.344 574.467 45.776C574.167 46.208 573.741 46.55 573.189 46.802C572.649 47.042 572.025 47.162 571.317 47.162ZM580.722 47.162C579.966 47.162 579.288 47.036 578.688 46.784C578.088 46.52 577.614 46.16 577.266 45.704C576.918 45.236 576.726 44.702 576.69 44.102H578.382C578.43 44.594 578.658 44.996 579.066 45.308C579.486 45.62 580.032 45.776 580.704 45.776C581.328 45.776 581.82 45.638 582.18 45.362C582.54 45.086 582.72 44.738 582.72 44.318C582.72 43.886 582.528 43.568 582.144 43.364C581.76 43.148 581.166 42.938 580.362 42.734C579.63 42.542 579.03 42.35 578.562 42.158C578.106 41.954 577.71 41.66 577.374 41.276C577.05 40.88 576.888 40.364 576.888 39.728C576.888 39.224 577.038 38.762 577.338 38.342C577.638 37.922 578.064 37.592 578.616 37.352C579.168 37.1 579.798 36.974 580.506 36.974C581.598 36.974 582.48 37.25 583.152 37.802C583.824 38.354 584.184 39.11 584.232 40.07H582.594C582.558 39.554 582.348 39.14 581.964 38.828C581.592 38.516 581.088 38.36 580.452 38.36C579.864 38.36 579.396 38.486 579.048 38.738C578.7 38.99 578.526 39.32 578.526 39.728C578.526 40.052 578.628 40.322 578.832 40.538C579.048 40.742 579.312 40.91 579.624 41.042C579.948 41.162 580.392 41.3 580.956 41.456C581.664 41.648 582.24 41.84 582.684 42.032C583.128 42.212 583.506 42.488 583.818 42.86C584.142 43.232 584.31 43.718 584.322 44.318C584.322 44.858 584.172 45.344 583.872 45.776C583.572 46.208 583.146 46.55 582.594 46.802C582.054 47.042 581.43 47.162 580.722 47.162ZM588.272 33.68V47H586.634V33.68H588.272ZM600.064 41.69C600.064 42.002 600.046 42.332 600.01 42.68H592.126C592.186 43.652 592.516 44.414 593.116 44.966C593.728 45.506 594.466 45.776 595.33 45.776C596.038 45.776 596.626 45.614 597.094 45.29C597.574 44.954 597.91 44.51 598.102 43.958H599.866C599.602 44.906 599.074 45.68 598.282 46.28C597.49 46.868 596.506 47.162 595.33 47.162C594.394 47.162 593.554 46.952 592.81 46.532C592.078 46.112 591.502 45.518 591.082 44.75C590.662 43.97 590.452 43.07 590.452 42.05C590.452 41.03 590.656 40.136 591.064 39.368C591.472 38.6 592.042 38.012 592.774 37.604C593.518 37.184 594.37 36.974 595.33 36.974C596.266 36.974 597.094 37.178 597.814 37.586C598.534 37.994 599.086 38.558 599.47 39.278C599.866 39.986 600.064 40.79 600.064 41.69ZM598.372 41.348C598.372 40.724 598.234 40.19 597.958 39.746C597.682 39.29 597.304 38.948 596.824 38.72C596.356 38.48 595.834 38.36 595.258 38.36C594.43 38.36 593.722 38.624 593.134 39.152C592.558 39.68 592.228 40.412 592.144 41.348H598.372Z" fill="#030303"/>
<path d="M635.983 40.718C635.983 39.494 636.259 38.396 636.811 37.424C637.363 36.44 638.113 35.672 639.061 35.12C640.021 34.568 641.083 34.292 642.247 34.292C643.615 34.292 644.809 34.622 645.829 35.282C646.849 35.942 647.593 36.878 648.061 38.09H646.099C645.751 37.334 645.247 36.752 644.587 36.344C643.939 35.936 643.159 35.732 642.247 35.732C641.371 35.732 640.585 35.936 639.889 36.344C639.193 36.752 638.647 37.334 638.251 38.09C637.855 38.834 637.657 39.71 637.657 40.718C637.657 41.714 637.855 42.59 638.251 43.346C638.647 44.09 639.193 44.666 639.889 45.074C640.585 45.482 641.371 45.686 642.247 45.686C643.159 45.686 643.939 45.488 644.587 45.092C645.247 44.684 645.751 44.102 646.099 43.346H648.061C647.593 44.546 646.849 45.476 645.829 46.136C644.809 46.784 643.615 47.108 642.247 47.108C641.083 47.108 640.021 46.838 639.061 46.298C638.113 45.746 637.363 44.984 636.811 44.012C636.259 43.04 635.983 41.942 635.983 40.718ZM652.137 38.738C652.425 38.174 652.833 37.736 653.361 37.424C653.901 37.112 654.555 36.956 655.323 36.956V38.648H654.891C653.055 38.648 652.137 39.644 652.137 41.636V47H650.499V37.136H652.137V38.738ZM665.962 37.136V47H664.324V45.542C664.012 46.046 663.574 46.442 663.01 46.73C662.458 47.006 661.846 47.144 661.174 47.144C660.406 47.144 659.716 46.988 659.104 46.676C658.492 46.352 658.006 45.872 657.646 45.236C657.298 44.6 657.124 43.826 657.124 42.914V37.136H658.744V42.698C658.744 43.67 658.99 44.42 659.482 44.948C659.974 45.464 660.646 45.722 661.498 45.722C662.374 45.722 663.064 45.452 663.568 44.912C664.072 44.372 664.324 43.586 664.324 42.554V37.136H665.962ZM669.574 35.534C669.262 35.534 668.998 35.426 668.782 35.21C668.566 34.994 668.458 34.73 668.458 34.418C668.458 34.106 668.566 33.842 668.782 33.626C668.998 33.41 669.262 33.302 669.574 33.302C669.874 33.302 670.126 33.41 670.33 33.626C670.546 33.842 670.654 34.106 670.654 34.418C670.654 34.73 670.546 34.994 670.33 35.21C670.126 35.426 669.874 35.534 669.574 35.534ZM670.366 37.136V47H668.728V37.136H670.366ZM676.649 47.162C675.893 47.162 675.215 47.036 674.615 46.784C674.015 46.52 673.541 46.16 673.193 45.704C672.845 45.236 672.653 44.702 672.617 44.102H674.309C674.357 44.594 674.585 44.996 674.993 45.308C675.413 45.62 675.959 45.776 676.631 45.776C677.255 45.776 677.747 45.638 678.107 45.362C678.467 45.086 678.647 44.738 678.647 44.318C678.647 43.886 678.455 43.568 678.071 43.364C677.687 43.148 677.093 42.938 676.289 42.734C675.557 42.542 674.957 42.35 674.489 42.158C674.033 41.954 673.637 41.66 673.301 41.276C672.977 40.88 672.815 40.364 672.815 39.728C672.815 39.224 672.965 38.762 673.265 38.342C673.565 37.922 673.991 37.592 674.543 37.352C675.095 37.1 675.725 36.974 676.433 36.974C677.525 36.974 678.407 37.25 679.079 37.802C679.751 38.354 680.111 39.11 680.159 40.07H678.521C678.485 39.554 678.275 39.14 677.891 38.828C677.519 38.516 677.015 38.36 676.379 38.36C675.791 38.36 675.323 38.486 674.975 38.738C674.627 38.99 674.453 39.32 674.453 39.728C674.453 40.052 674.555 40.322 674.759 40.538C674.975 40.742 675.239 40.91 675.551 41.042C675.875 41.162 676.319 41.3 676.883 41.456C677.591 41.648 678.167 41.84 678.611 42.032C679.055 42.212 679.433 42.488 679.745 42.86C680.069 43.232 680.237 43.718 680.249 44.318C680.249 44.858 680.099 45.344 679.799 45.776C679.499 46.208 679.073 46.55 678.521 46.802C677.981 47.042 677.357 47.162 676.649 47.162ZM691.562 41.69C691.562 42.002 691.544 42.332 691.508 42.68H683.624C683.684 43.652 684.014 44.414 684.614 44.966C685.226 45.506 685.964 45.776 686.828 45.776C687.536 45.776 688.124 45.614 688.592 45.29C689.072 44.954 689.408 44.51 689.6 43.958H691.364C691.1 44.906 690.572 45.68 689.78 46.28C688.988 46.868 688.004 47.162 686.828 47.162C685.892 47.162 685.052 46.952 684.308 46.532C683.576 46.112 683 45.518 682.58 44.75C682.16 43.97 681.95 43.07 681.95 42.05C681.95 41.03 682.154 40.136 682.562 39.368C682.97 38.6 683.54 38.012 684.272 37.604C685.016 37.184 685.868 36.974 686.828 36.974C687.764 36.974 688.592 37.178 689.312 37.586C690.032 37.994 690.584 38.558 690.968 39.278C691.364 39.986 691.562 40.79 691.562 41.69ZM689.87 41.348C689.87 40.724 689.732 40.19 689.456 39.746C689.18 39.29 688.802 38.948 688.322 38.72C687.854 38.48 687.332 38.36 686.756 38.36C685.928 38.36 685.22 38.624 684.632 39.152C684.056 39.68 683.726 40.412 683.642 41.348H689.87ZM700.521 38.486V44.3C700.521 44.78 700.623 45.122 700.827 45.326C701.031 45.518 701.385 45.614 701.889 45.614H703.095V47H701.619C700.707 47 700.023 46.79 699.567 46.37C699.111 45.95 698.883 45.26 698.883 44.3V38.486H697.605V37.136H698.883V34.652H700.521V37.136H703.095V38.486H700.521ZM709.975 36.956C710.719 36.956 711.391 37.118 711.991 37.442C712.591 37.754 713.059 38.228 713.395 38.864C713.743 39.5 713.917 40.274 713.917 41.186V47H712.297V41.42C712.297 40.436 712.051 39.686 711.559 39.17C711.067 38.642 710.395 38.378 709.543 38.378C708.679 38.378 707.989 38.648 707.473 39.188C706.969 39.728 706.717 40.514 706.717 41.546V47H705.079V33.68H706.717V38.54C707.041 38.036 707.485 37.646 708.049 37.37C708.625 37.094 709.267 36.956 709.975 36.956ZM718.231 38.738C718.519 38.174 718.927 37.736 719.455 37.424C719.995 37.112 720.649 36.956 721.417 36.956V38.648H720.985C719.149 38.648 718.231 39.644 718.231 41.636V47H716.593V37.136H718.231V38.738ZM727.61 47.162C726.686 47.162 725.846 46.952 725.09 46.532C724.346 46.112 723.758 45.518 723.326 44.75C722.906 43.97 722.696 43.07 722.696 42.05C722.696 41.042 722.912 40.154 723.344 39.386C723.788 38.606 724.388 38.012 725.144 37.604C725.9 37.184 726.746 36.974 727.682 36.974C728.618 36.974 729.464 37.184 730.22 37.604C730.976 38.012 731.57 38.6 732.002 39.368C732.446 40.136 732.668 41.03 732.668 42.05C732.668 43.07 732.44 43.97 731.984 44.75C731.54 45.518 730.934 46.112 730.166 46.532C729.398 46.952 728.546 47.162 727.61 47.162ZM727.61 45.722C728.198 45.722 728.75 45.584 729.266 45.308C729.782 45.032 730.196 44.618 730.508 44.066C730.832 43.514 730.994 42.842 730.994 42.05C730.994 41.258 730.838 40.586 730.526 40.034C730.214 39.482 729.806 39.074 729.302 38.81C728.798 38.534 728.252 38.396 727.664 38.396C727.064 38.396 726.512 38.534 726.008 38.81C725.516 39.074 725.12 39.482 724.82 40.034C724.52 40.586 724.37 41.258 724.37 42.05C724.37 42.854 724.514 43.532 724.802 44.084C725.102 44.636 725.498 45.05 725.99 45.326C726.482 45.59 727.022 45.722 727.61 45.722ZM743.57 37.136V47H741.932V45.542C741.62 46.046 741.182 46.442 740.618 46.73C740.066 47.006 739.454 47.144 738.782 47.144C738.014 47.144 737.324 46.988 736.712 46.676C736.1 46.352 735.614 45.872 735.254 45.236C734.906 44.6 734.732 43.826 734.732 42.914V37.136H736.352V42.698C736.352 43.67 736.598 44.42 737.09 44.948C737.582 45.464 738.254 45.722 739.106 45.722C739.982 45.722 740.672 45.452 741.176 44.912C741.68 44.372 741.932 43.586 741.932 42.554V37.136H743.57ZM750.403 36.974C751.255 36.974 751.999 37.16 752.635 37.532C753.283 37.904 753.763 38.372 754.075 38.936V37.136H755.731V47.216C755.731 48.116 755.539 48.914 755.155 49.61C754.771 50.318 754.219 50.87 753.499 51.266C752.791 51.662 751.963 51.86 751.015 51.86C749.719 51.86 748.639 51.554 747.775 50.942C746.911 50.33 746.401 49.496 746.245 48.44H747.865C748.045 49.04 748.417 49.52 748.981 49.88C749.545 50.252 750.223 50.438 751.015 50.438C751.915 50.438 752.647 50.156 753.211 49.592C753.787 49.028 754.075 48.236 754.075 47.216V45.146C753.751 45.722 753.271 46.202 752.635 46.586C751.999 46.97 751.255 47.162 750.403 47.162C749.527 47.162 748.729 46.946 748.009 46.514C747.301 46.082 746.743 45.476 746.335 44.696C745.927 43.916 745.723 43.028 745.723 42.032C745.723 41.024 745.927 40.142 746.335 39.386C746.743 38.618 747.301 38.024 748.009 37.604C748.729 37.184 749.527 36.974 750.403 36.974ZM754.075 42.05C754.075 41.306 753.925 40.658 753.625 40.106C753.325 39.554 752.917 39.134 752.401 38.846C751.897 38.546 751.339 38.396 750.727 38.396C750.115 38.396 749.557 38.54 749.053 38.828C748.549 39.116 748.147 39.536 747.847 40.088C747.547 40.64 747.397 41.288 747.397 42.032C747.397 42.788 747.547 43.448 747.847 44.012C748.147 44.564 748.549 44.99 749.053 45.29C749.557 45.578 750.115 45.722 750.727 45.722C751.339 45.722 751.897 45.578 752.401 45.29C752.917 44.99 753.325 44.564 753.625 44.012C753.925 43.448 754.075 42.794 754.075 42.05ZM763.395 36.956C764.139 36.956 764.811 37.118 765.411 37.442C766.011 37.754 766.479 38.228 766.815 38.864C767.163 39.5 767.337 40.274 767.337 41.186V47H765.717V41.42C765.717 40.436 765.471 39.686 764.979 39.17C764.487 38.642 763.815 38.378 762.963 38.378C762.099 38.378 761.409 38.648 760.893 39.188C760.389 39.728 760.137 40.514 760.137 41.546V47H758.499V33.68H760.137V38.54C760.461 38.036 760.905 37.646 761.469 37.37C762.045 37.094 762.687 36.956 763.395 36.956ZM776.45 38.972C776.786 38.384 777.278 37.904 777.926 37.532C778.574 37.16 779.312 36.974 780.14 36.974C781.028 36.974 781.826 37.184 782.534 37.604C783.242 38.024 783.8 38.618 784.208 39.386C784.616 40.142 784.82 41.024 784.82 42.032C784.82 43.028 784.616 43.916 784.208 44.696C783.8 45.476 783.236 46.082 782.516 46.514C781.808 46.946 781.016 47.162 780.14 47.162C779.288 47.162 778.538 46.976 777.89 46.604C777.254 46.232 776.774 45.758 776.45 45.182V47H774.812V33.68H776.45V38.972ZM783.146 42.032C783.146 41.288 782.996 40.64 782.696 40.088C782.396 39.536 781.988 39.116 781.472 38.828C780.968 38.54 780.41 38.396 779.798 38.396C779.198 38.396 778.64 38.546 778.124 38.846C777.62 39.134 777.212 39.56 776.9 40.124C776.6 40.676 776.45 41.318 776.45 42.05C776.45 42.794 776.6 43.448 776.9 44.012C777.212 44.564 777.62 44.99 778.124 45.29C778.64 45.578 779.198 45.722 779.798 45.722C780.41 45.722 780.968 45.578 781.472 45.29C781.988 44.99 782.396 44.564 782.696 44.012C782.996 43.448 783.146 42.788 783.146 42.032ZM786.364 42.032C786.364 41.024 786.568 40.142 786.976 39.386C787.384 38.618 787.942 38.024 788.65 37.604C789.37 37.184 790.168 36.974 791.044 36.974C791.908 36.974 792.658 37.16 793.294 37.532C793.93 37.904 794.404 38.372 794.716 38.936V37.136H796.372V47H794.716V45.164C794.392 45.74 793.906 46.22 793.258 46.604C792.622 46.976 791.878 47.162 791.026 47.162C790.15 47.162 789.358 46.946 788.65 46.514C787.942 46.082 787.384 45.476 786.976 44.696C786.568 43.916 786.364 43.028 786.364 42.032ZM794.716 42.05C794.716 41.306 794.566 40.658 794.266 40.106C793.966 39.554 793.558 39.134 793.042 38.846C792.538 38.546 791.98 38.396 791.368 38.396C790.756 38.396 790.198 38.54 789.694 38.828C789.19 39.116 788.788 39.536 788.488 40.088C788.188 40.64 788.038 41.288 788.038 42.032C788.038 42.788 788.188 43.448 788.488 44.012C788.788 44.564 789.19 44.99 789.694 45.29C790.198 45.578 790.756 45.722 791.368 45.722C791.98 45.722 792.538 45.578 793.042 45.29C793.558 44.99 793.966 44.564 794.266 44.012C794.566 43.448 794.716 42.794 794.716 42.05ZM798.528 42.05C798.528 41.03 798.732 40.142 799.14 39.386C799.548 38.618 800.112 38.024 800.832 37.604C801.564 37.184 802.398 36.974 803.334 36.974C804.546 36.974 805.542 37.268 806.322 37.856C807.114 38.444 807.636 39.26 807.888 40.304H806.124C805.956 39.704 805.626 39.23 805.134 38.882C804.654 38.534 804.054 38.36 803.334 38.36C802.398 38.36 801.642 38.684 801.066 39.332C800.49 39.968 800.202 40.874 800.202 42.05C800.202 43.238 800.49 44.156 801.066 44.804C801.642 45.452 802.398 45.776 803.334 45.776C804.054 45.776 804.654 45.608 805.134 45.272C805.614 44.936 805.944 44.456 806.124 43.832H807.888C807.624 44.84 807.096 45.65 806.304 46.262C805.512 46.862 804.522 47.162 803.334 47.162C802.398 47.162 801.564 46.952 800.832 46.532C800.112 46.112 799.548 45.518 799.14 44.75C798.732 43.982 798.528 43.082 798.528 42.05ZM815.582 47L811.712 42.644V47H810.074V33.68H811.712V41.51L815.51 37.136H817.796L813.152 42.05L817.814 47H815.582ZM828.337 41.69C828.337 42.002 828.319 42.332 828.283 42.68H820.399C820.459 43.652 820.789 44.414 821.389 44.966C822.001 45.506 822.739 45.776 823.603 45.776C824.311 45.776 824.899 45.614 825.367 45.29C825.847 44.954 826.183 44.51 826.375 43.958H828.139C827.875 44.906 827.347 45.68 826.555 46.28C825.763 46.868 824.779 47.162 823.603 47.162C822.667 47.162 821.827 46.952 821.083 46.532C820.351 46.112 819.775 45.518 819.355 44.75C818.935 43.97 818.725 43.07 818.725 42.05C818.725 41.03 818.929 40.136 819.337 39.368C819.745 38.6 820.315 38.012 821.047 37.604C821.791 37.184 822.643 36.974 823.603 36.974C824.539 36.974 825.367 37.178 826.087 37.586C826.807 37.994 827.359 38.558 827.743 39.278C828.139 39.986 828.337 40.79 828.337 41.69ZM826.645 41.348C826.645 40.724 826.507 40.19 826.231 39.746C825.955 39.29 825.577 38.948 825.097 38.72C824.629 38.48 824.107 38.36 823.531 38.36C822.703 38.36 821.995 38.624 821.407 39.152C820.831 39.68 820.501 40.412 820.417 41.348H826.645ZM835.305 36.956C836.505 36.956 837.477 37.322 838.221 38.054C838.965 38.774 839.337 39.818 839.337 41.186V47H837.717V41.42C837.717 40.436 837.471 39.686 836.979 39.17C836.487 38.642 835.815 38.378 834.963 38.378C834.099 38.378 833.409 38.648 832.893 39.188C832.389 39.728 832.137 40.514 832.137 41.546V47H830.499V37.136H832.137V38.54C832.461 38.036 832.899 37.646 833.451 37.37C834.015 37.094 834.633 36.956 835.305 36.956ZM841.401 42.032C841.401 41.024 841.605 40.142 842.013 39.386C842.421 38.618 842.979 38.024 843.687 37.604C844.407 37.184 845.211 36.974 846.099 36.974C846.867 36.974 847.581 37.154 848.241 37.514C848.901 37.862 849.405 38.324 849.753 38.9V33.68H851.409V47H849.753V45.146C849.429 45.734 848.949 46.22 848.313 46.604C847.677 46.976 846.933 47.162 846.081 47.162C845.205 47.162 844.407 46.946 843.687 46.514C842.979 46.082 842.421 45.476 842.013 44.696C841.605 43.916 841.401 43.028 841.401 42.032ZM849.753 42.05C849.753 41.306 849.603 40.658 849.303 40.106C849.003 39.554 848.595 39.134 848.079 38.846C847.575 38.546 847.017 38.396 846.405 38.396C845.793 38.396 845.235 38.54 844.731 38.828C844.227 39.116 843.825 39.536 843.525 40.088C843.225 40.64 843.075 41.288 843.075 42.032C843.075 42.788 843.225 43.448 843.525 44.012C843.825 44.564 844.227 44.99 844.731 45.29C845.235 45.578 845.793 45.722 846.405 45.722C847.017 45.722 847.575 45.578 848.079 45.29C848.595 44.99 849.003 44.564 849.303 44.012C849.603 43.448 849.753 42.794 849.753 42.05Z" fill="#030303"/>
<path d="M896.005 44.21H890.533L889.525 47H887.797L892.333 34.526H894.223L898.741 47H897.013L896.005 44.21ZM895.537 42.878L893.269 36.542L891.001 42.878H895.537ZM902.356 38.972C902.692 38.384 903.184 37.904 903.832 37.532C904.48 37.16 905.218 36.974 906.046 36.974C906.934 36.974 907.732 37.184 908.44 37.604C909.148 38.024 909.706 38.618 910.114 39.386C910.522 40.142 910.726 41.024 910.726 42.032C910.726 43.028 910.522 43.916 910.114 44.696C909.706 45.476 909.142 46.082 908.422 46.514C907.714 46.946 906.922 47.162 906.046 47.162C905.194 47.162 904.444 46.976 903.796 46.604C903.16 46.232 902.68 45.758 902.356 45.182V47H900.718V33.68H902.356V38.972ZM909.052 42.032C909.052 41.288 908.902 40.64 908.602 40.088C908.302 39.536 907.894 39.116 907.378 38.828C906.874 38.54 906.316 38.396 905.704 38.396C905.104 38.396 904.546 38.546 904.03 38.846C903.526 39.134 903.118 39.56 902.806 40.124C902.506 40.676 902.356 41.318 902.356 42.05C902.356 42.794 902.506 43.448 902.806 44.012C903.118 44.564 903.526 44.99 904.03 45.29C904.546 45.578 905.104 45.722 905.704 45.722C906.316 45.722 906.874 45.578 907.378 45.29C907.894 44.99 908.302 44.564 908.602 44.012C908.902 43.448 909.052 42.788 909.052 42.032ZM917.184 47.162C916.26 47.162 915.42 46.952 914.664 46.532C913.92 46.112 913.332 45.518 912.9 44.75C912.48 43.97 912.27 43.07 912.27 42.05C912.27 41.042 912.486 40.154 912.918 39.386C913.362 38.606 913.962 38.012 914.718 37.604C915.474 37.184 916.32 36.974 917.256 36.974C918.192 36.974 919.038 37.184 919.794 37.604C920.55 38.012 921.144 38.6 921.576 39.368C922.02 40.136 922.242 41.03 922.242 42.05C922.242 43.07 922.014 43.97 921.558 44.75C921.114 45.518 920.508 46.112 919.74 46.532C918.972 46.952 918.12 47.162 917.184 47.162ZM917.184 45.722C917.772 45.722 918.324 45.584 918.84 45.308C919.356 45.032 919.77 44.618 920.082 44.066C920.406 43.514 920.568 42.842 920.568 42.05C920.568 41.258 920.412 40.586 920.1 40.034C919.788 39.482 919.38 39.074 918.876 38.81C918.372 38.534 917.826 38.396 917.238 38.396C916.638 38.396 916.086 38.534 915.582 38.81C915.09 39.074 914.694 39.482 914.394 40.034C914.094 40.586 913.944 41.258 913.944 42.05C913.944 42.854 914.088 43.532 914.376 44.084C914.676 44.636 915.072 45.05 915.564 45.326C916.056 45.59 916.596 45.722 917.184 45.722ZM933.144 37.136V47H931.506V45.542C931.194 46.046 930.756 46.442 930.192 46.73C929.64 47.006 929.028 47.144 928.356 47.144C927.588 47.144 926.898 46.988 926.286 46.676C925.674 46.352 925.188 45.872 924.828 45.236C924.48 44.6 924.306 43.826 924.306 42.914V37.136H925.926V42.698C925.926 43.67 926.172 44.42 926.664 44.948C927.156 45.464 927.828 45.722 928.68 45.722C929.556 45.722 930.246 45.452 930.75 44.912C931.254 44.372 931.506 43.586 931.506 42.554V37.136H933.144ZM937.907 38.486V44.3C937.907 44.78 938.009 45.122 938.213 45.326C938.417 45.518 938.771 45.614 939.275 45.614H940.481V47H939.005C938.093 47 937.409 46.79 936.953 46.37C936.497 45.95 936.269 45.26 936.269 44.3V38.486H934.991V37.136H936.269V34.652H937.907V37.136H940.481V38.486H937.907ZM956.013 37.136V47H954.375V45.542C954.063 46.046 953.625 46.442 953.061 46.73C952.509 47.006 951.897 47.144 951.225 47.144C950.457 47.144 949.767 46.988 949.155 46.676C948.543 46.352 948.057 45.872 947.697 45.236C947.349 44.6 947.175 43.826 947.175 42.914V37.136H948.795V42.698C948.795 43.67 949.041 44.42 949.533 44.948C950.025 45.464 950.697 45.722 951.549 45.722C952.425 45.722 953.115 45.452 953.619 44.912C954.123 44.372 954.375 43.586 954.375 42.554V37.136H956.013ZM962.271 47.162C961.515 47.162 960.837 47.036 960.237 46.784C959.637 46.52 959.163 46.16 958.815 45.704C958.467 45.236 958.275 44.702 958.239 44.102H959.931C959.979 44.594 960.207 44.996 960.615 45.308C961.035 45.62 961.581 45.776 962.253 45.776C962.877 45.776 963.369 45.638 963.729 45.362C964.089 45.086 964.269 44.738 964.269 44.318C964.269 43.886 964.077 43.568 963.693 43.364C963.309 43.148 962.715 42.938 961.911 42.734C961.179 42.542 960.579 42.35 960.111 42.158C959.655 41.954 959.259 41.66 958.923 41.276C958.599 40.88 958.437 40.364 958.437 39.728C958.437 39.224 958.587 38.762 958.887 38.342C959.187 37.922 959.613 37.592 960.165 37.352C960.717 37.1 961.347 36.974 962.055 36.974C963.147 36.974 964.029 37.25 964.701 37.802C965.373 38.354 965.733 39.11 965.781 40.07H964.143C964.107 39.554 963.897 39.14 963.513 38.828C963.141 38.516 962.637 38.36 962.001 38.36C961.413 38.36 960.945 38.486 960.597 38.738C960.249 38.99 960.075 39.32 960.075 39.728C960.075 40.052 960.177 40.322 960.381 40.538C960.597 40.742 960.861 40.91 961.173 41.042C961.497 41.162 961.941 41.3 962.505 41.456C963.213 41.648 963.789 41.84 964.233 42.032C964.677 42.212 965.055 42.488 965.367 42.86C965.691 43.232 965.859 43.718 965.871 44.318C965.871 44.858 965.721 45.344 965.421 45.776C965.121 46.208 964.695 46.55 964.143 46.802C963.603 47.042 962.979 47.162 962.271 47.162Z" fill="#030303"/>
<path d="M1141 30C1141 20.5719 1141 15.8579 1143.93 12.9289C1146.86 10 1151.57 10 1161 10H1364C1373.43 10 1378.14 10 1381.07 12.9289C1384 15.8579 1384 20.5719 1384 30V51C1384 60.4281 1384 65.1421 1381.07 68.0711C1378.14 71 1373.43 71 1364 71H1161C1151.57 71 1146.86 71 1143.93 68.0711C1141 65.1421 1141 60.4281 1141 51V30Z" fill="#8B12FC"/>
<path d="M1183.96 37.11C1183.57 36.3473 1183.02 35.7753 1182.31 35.394C1181.61 34.998 1180.79 34.8 1179.87 34.8C1178.86 34.8 1177.96 35.0273 1177.16 35.482C1176.37 35.9367 1175.75 36.582 1175.29 37.418C1174.85 38.254 1174.63 39.222 1174.63 40.322C1174.63 41.422 1174.85 42.3973 1175.29 43.248C1175.75 44.084 1176.37 44.7293 1177.16 45.184C1177.96 45.6387 1178.86 45.866 1179.87 45.866C1181.23 45.866 1182.34 45.4847 1183.19 44.722C1184.04 43.9593 1184.56 42.9253 1184.75 41.62H1179.01V39.618H1187.44V41.576C1187.28 42.764 1186.85 43.8567 1186.16 44.854C1185.49 45.8513 1184.6 46.6507 1183.5 47.252C1182.41 47.8387 1181.2 48.132 1179.87 48.132C1178.43 48.132 1177.12 47.802 1175.93 47.142C1174.74 46.4673 1173.8 45.536 1173.09 44.348C1172.4 43.16 1172.06 41.818 1172.06 40.322C1172.06 38.826 1172.4 37.484 1173.09 36.296C1173.8 35.108 1174.74 34.184 1175.93 33.524C1177.13 32.8493 1178.45 32.512 1179.87 32.512C1181.5 32.512 1182.94 32.9153 1184.2 33.722C1185.48 34.514 1186.4 35.6433 1186.98 37.11H1183.96ZM1201.02 41.642C1201.02 42.0967 1200.99 42.5073 1200.93 42.874H1191.67C1191.74 43.842 1192.1 44.6193 1192.75 45.206C1193.39 45.7927 1194.19 46.086 1195.12 46.086C1196.47 46.086 1197.43 45.5213 1197.98 44.392H1200.69C1200.32 45.5067 1199.66 46.4233 1198.69 47.142C1197.74 47.846 1196.55 48.198 1195.12 48.198C1193.97 48.198 1192.92 47.9413 1192 47.428C1191.09 46.9 1190.37 46.1667 1189.84 45.228C1189.33 44.2747 1189.07 43.1747 1189.07 41.928C1189.07 40.6813 1189.32 39.5887 1189.82 38.65C1190.34 37.6967 1191.05 36.9633 1191.96 36.45C1192.88 35.9367 1193.94 35.68 1195.12 35.68C1196.27 35.68 1197.29 35.9293 1198.18 36.428C1199.08 36.9267 1199.77 37.6307 1200.27 38.54C1200.77 39.4347 1201.02 40.4687 1201.02 41.642ZM1198.4 40.85C1198.39 39.926 1198.06 39.1853 1197.41 38.628C1196.77 38.0707 1195.97 37.792 1195.01 37.792C1194.15 37.792 1193.41 38.0707 1192.79 38.628C1192.18 39.1707 1191.81 39.9113 1191.69 40.85H1198.4ZM1206.41 37.924V44.634C1206.41 45.0887 1206.52 45.4187 1206.72 45.624C1206.94 45.8147 1207.31 45.91 1207.82 45.91H1209.36V48H1207.38C1206.25 48 1205.39 47.736 1204.79 47.208C1204.19 46.68 1203.88 45.822 1203.88 44.634V37.924H1202.45V35.878H1203.88V32.864H1206.41V35.878H1209.36V37.924H1206.41ZM1219.9 34.734V39.222H1225.18V41.268H1219.9V45.954H1225.84V48H1217.39V32.688H1225.84V34.734H1219.9ZM1228.09 41.884C1228.09 40.6667 1228.34 39.5887 1228.84 38.65C1229.35 37.7113 1230.04 36.9853 1230.91 36.472C1231.79 35.944 1232.75 35.68 1233.81 35.68C1234.76 35.68 1235.59 35.8707 1236.3 36.252C1237.02 36.6187 1237.59 37.0807 1238.01 37.638V35.878H1240.54V48H1238.01V46.196C1237.59 46.768 1237.01 47.2447 1236.27 47.626C1235.54 48.0073 1234.71 48.198 1233.77 48.198C1232.73 48.198 1231.77 47.934 1230.91 47.406C1230.04 46.8633 1229.35 46.1153 1228.84 45.162C1228.34 44.194 1228.09 43.1013 1228.09 41.884ZM1238.01 41.928C1238.01 41.092 1237.84 40.366 1237.48 39.75C1237.15 39.134 1236.7 38.6647 1236.14 38.342C1235.59 38.0193 1234.98 37.858 1234.34 37.858C1233.69 37.858 1233.09 38.0193 1232.53 38.342C1231.98 38.65 1231.52 39.112 1231.17 39.728C1230.83 40.3293 1230.66 41.048 1230.66 41.884C1230.66 42.72 1230.83 43.4533 1231.17 44.084C1231.52 44.7147 1231.98 45.1987 1232.53 45.536C1233.11 45.8587 1233.71 46.02 1234.34 46.02C1234.98 46.02 1235.59 45.8587 1236.14 45.536C1236.7 45.2133 1237.15 44.744 1237.48 44.128C1237.84 43.4973 1238.01 42.764 1238.01 41.928ZM1246.34 37.638C1246.71 37.022 1247.2 36.5453 1247.8 36.208C1248.41 35.856 1249.14 35.68 1249.97 35.68V38.276H1249.34C1248.35 38.276 1247.61 38.5253 1247.09 39.024C1246.59 39.5227 1246.34 40.388 1246.34 41.62V48H1243.84V35.878H1246.34V37.638ZM1254.79 31.72V48H1252.28V31.72H1254.79ZM1268.99 35.878L1261.56 53.698H1258.96L1261.42 47.802L1256.65 35.878H1259.44L1262.85 45.118L1266.4 35.878H1268.99ZM1285.82 44.876H1279.42L1278.32 48H1275.7L1281.18 32.688H1284.08L1289.56 48H1286.92L1285.82 44.876ZM1285.11 42.83L1282.63 35.724L1280.12 42.83H1285.11ZM1291.1 41.928C1291.1 40.6813 1291.35 39.5887 1291.85 38.65C1292.37 37.6967 1293.07 36.9633 1293.96 36.45C1294.86 35.9367 1295.89 35.68 1297.04 35.68C1298.51 35.68 1299.72 36.032 1300.67 36.736C1301.64 37.4253 1302.29 38.4153 1302.63 39.706H1299.93C1299.71 39.1047 1299.35 38.6353 1298.87 38.298C1298.39 37.9607 1297.78 37.792 1297.04 37.792C1296.02 37.792 1295.2 38.1587 1294.58 38.892C1293.98 39.6107 1293.68 40.6227 1293.68 41.928C1293.68 43.2333 1293.98 44.2527 1294.58 44.986C1295.2 45.7193 1296.02 46.086 1297.04 46.086C1298.5 46.086 1299.46 45.448 1299.93 44.172H1302.63C1302.28 45.404 1301.62 46.3867 1300.65 47.12C1299.68 47.8387 1298.48 48.198 1297.04 48.198C1295.89 48.198 1294.86 47.9413 1293.96 47.428C1293.07 46.9 1292.37 46.1667 1291.85 45.228C1291.35 44.2747 1291.1 43.1747 1291.1 41.928ZM1304.3 41.928C1304.3 40.6813 1304.54 39.5887 1305.04 38.65C1305.56 37.6967 1306.26 36.9633 1307.16 36.45C1308.05 35.9367 1309.08 35.68 1310.24 35.68C1311.7 35.68 1312.91 36.032 1313.87 36.736C1314.83 37.4253 1315.49 38.4153 1315.82 39.706H1313.12C1312.9 39.1047 1312.55 38.6353 1312.06 38.298C1311.58 37.9607 1310.97 37.792 1310.24 37.792C1309.21 37.792 1308.39 38.1587 1307.77 38.892C1307.17 39.6107 1306.87 40.6227 1306.87 41.928C1306.87 43.2333 1307.17 44.2527 1307.77 44.986C1308.39 45.7193 1309.21 46.086 1310.24 46.086C1311.69 46.086 1312.65 45.448 1313.12 44.172H1315.82C1315.47 45.404 1314.81 46.3867 1313.84 47.12C1312.88 47.8387 1311.67 48.198 1310.24 48.198C1309.08 48.198 1308.05 47.9413 1307.16 47.428C1306.26 46.9 1305.56 46.1667 1305.04 45.228C1304.54 44.2747 1304.3 43.1747 1304.3 41.928ZM1329.43 41.642C1329.43 42.0967 1329.4 42.5073 1329.34 42.874H1320.08C1320.16 43.842 1320.52 44.6193 1321.16 45.206C1321.81 45.7927 1322.6 46.086 1323.54 46.086C1324.89 46.086 1325.84 45.5213 1326.4 44.392H1329.1C1328.74 45.5067 1328.07 46.4233 1327.1 47.142C1326.15 47.846 1324.96 48.198 1323.54 48.198C1322.38 48.198 1321.34 47.9413 1320.41 47.428C1319.5 46.9 1318.78 46.1667 1318.26 45.228C1317.74 44.2747 1317.49 43.1747 1317.49 41.928C1317.49 40.6813 1317.74 39.5887 1318.23 38.65C1318.75 37.6967 1319.46 36.9633 1320.37 36.45C1321.29 35.9367 1322.35 35.68 1323.54 35.68C1324.68 35.68 1325.7 35.9293 1326.59 36.428C1327.49 36.9267 1328.19 37.6307 1328.68 38.54C1329.18 39.4347 1329.43 40.4687 1329.43 41.642ZM1326.81 40.85C1326.8 39.926 1326.47 39.1853 1325.82 38.628C1325.18 38.0707 1324.38 37.792 1323.43 37.792C1322.56 37.792 1321.82 38.0707 1321.2 38.628C1320.59 39.1707 1320.22 39.9113 1320.1 40.85H1326.81ZM1336.3 48.198C1335.35 48.198 1334.49 48.0293 1333.73 47.692C1332.98 47.34 1332.38 46.8707 1331.94 46.284C1331.5 45.6827 1331.27 45.0153 1331.24 44.282H1333.84C1333.88 44.7953 1334.12 45.228 1334.56 45.58C1335.02 45.9173 1335.58 46.086 1336.26 46.086C1336.96 46.086 1337.5 45.954 1337.88 45.69C1338.28 45.4113 1338.48 45.0593 1338.48 44.634C1338.48 44.1793 1338.26 43.842 1337.82 43.622C1337.39 43.402 1336.71 43.16 1335.77 42.896C1334.86 42.6467 1334.12 42.4047 1333.55 42.17C1332.98 41.9353 1332.48 41.576 1332.05 41.092C1331.64 40.608 1331.44 39.97 1331.44 39.178C1331.44 38.5327 1331.63 37.946 1332.01 37.418C1332.39 36.8753 1332.93 36.45 1333.64 36.142C1334.36 35.834 1335.18 35.68 1336.1 35.68C1337.48 35.68 1338.59 36.032 1339.42 36.736C1340.28 37.4253 1340.73 38.3713 1340.79 39.574H1338.28C1338.24 39.0313 1338.02 38.5987 1337.62 38.276C1337.22 37.9533 1336.69 37.792 1336.01 37.792C1335.35 37.792 1334.85 37.9167 1334.5 38.166C1334.14 38.4153 1333.97 38.7453 1333.97 39.156C1333.97 39.4787 1334.09 39.75 1334.32 39.97C1334.56 40.19 1334.84 40.366 1335.18 40.498C1335.52 40.6153 1336.01 40.7693 1336.67 40.96C1337.55 41.1947 1338.27 41.4367 1338.83 41.686C1339.4 41.9207 1339.89 42.2727 1340.3 42.742C1340.72 43.2113 1340.93 43.8347 1340.94 44.612C1340.94 45.3013 1340.75 45.9173 1340.37 46.46C1339.99 47.0027 1339.45 47.428 1338.74 47.736C1338.05 48.044 1337.24 48.198 1336.3 48.198ZM1348.05 48.198C1347.1 48.198 1346.24 48.0293 1345.48 47.692C1344.73 47.34 1344.14 46.8707 1343.7 46.284C1343.26 45.6827 1343.02 45.0153 1342.99 44.282H1345.59C1345.63 44.7953 1345.87 45.228 1346.31 45.58C1346.77 45.9173 1347.33 46.086 1348.01 46.086C1348.71 46.086 1349.26 45.954 1349.64 45.69C1350.03 45.4113 1350.23 45.0593 1350.23 44.634C1350.23 44.1793 1350.01 43.842 1349.57 43.622C1349.15 43.402 1348.46 43.16 1347.52 42.896C1346.62 42.6467 1345.87 42.4047 1345.3 42.17C1344.73 41.9353 1344.23 41.576 1343.81 41.092C1343.4 40.608 1343.19 39.97 1343.19 39.178C1343.19 38.5327 1343.38 37.946 1343.76 37.418C1344.14 36.8753 1344.69 36.45 1345.39 36.142C1346.11 35.834 1346.93 35.68 1347.85 35.68C1349.23 35.68 1350.34 36.032 1351.18 36.736C1352.03 37.4253 1352.48 38.3713 1352.54 39.574H1350.03C1349.99 39.0313 1349.77 38.5987 1349.37 38.276C1348.98 37.9533 1348.44 37.792 1347.77 37.792C1347.11 37.792 1346.6 37.9167 1346.25 38.166C1345.9 38.4153 1345.72 38.7453 1345.72 39.156C1345.72 39.4787 1345.84 39.75 1346.07 39.97C1346.31 40.19 1346.59 40.366 1346.93 40.498C1347.27 40.6153 1347.77 40.7693 1348.43 40.96C1349.31 41.1947 1350.03 41.4367 1350.58 41.686C1351.15 41.9207 1351.65 42.2727 1352.06 42.742C1352.47 43.2113 1352.68 43.8347 1352.69 44.612C1352.69 45.3013 1352.5 45.9173 1352.12 46.46C1351.74 47.0027 1351.2 47.428 1350.49 47.736C1349.81 48.044 1348.99 48.198 1348.05 48.198Z" fill="white"/>
</g>
<defs>
<filter id="filter0_bd_533_1189" x="-6" y="-10" width="1460" height="101" filterUnits="userSpaceOnUse" color-interpolation-filters="sRGB">
<feFlood flood-opacity="0" result="BackgroundImageFix"/>
<feGaussianBlur in="BackgroundImage" stdDeviation="5"/>
<feComposite in2="SourceAlpha" operator="in" result="effect1_backgroundBlur_533_1189"/>
<feColorMatrix in="SourceAlpha" type="matrix" values="0 0 0 0 0 0 0 0 0 0 0 0 0 0 0 0 0 0 127 0" result="hardAlpha"/>
<feOffset dy="4"/>
<feGaussianBlur stdDeviation="2"/>
<feColorMatrix type="matrix" values="0 0 0 0 0 0 0 0 0 0 0 0 0 0 0 0 0 0 0.05 0"/>
<feBlend mode="normal" in2="effect1_backgroundBlur_533_1189" result="effect2_dropShadow_533_1189"/>
<feBlend mode="normal" in="SourceGraphic" in2="effect2_dropShadow_533_1189" result="shape"/>
</filter>
</defs>
</svg>
