<svg width="16" height="16" viewBox="0 0 16 16" fill="none" xmlns="http://www.w3.org/2000/svg">
<path d="M4.48578 1.54494L5.59264 1.21123C5.95794 1.10127 6.35076 1.12795 6.69784 1.28629C7.04492 1.44464 7.32254 1.72383 7.47892 2.0718L8.25492 3.79751C8.38961 4.0969 8.42715 4.43095 8.36227 4.75276C8.2974 5.07457 8.13336 5.36798 7.89321 5.5918L6.71206 6.69237C6.55378 6.84266 6.67378 7.42837 7.25206 8.43066C7.83092 9.43351 8.27835 9.83008 8.48464 9.76837L10.0321 9.29523C10.3457 9.19929 10.6816 9.2039 10.9925 9.30842C11.3034 9.41295 11.5738 9.61214 11.7658 9.87808L12.8686 11.4067C13.0914 11.7153 13.1945 12.0944 13.1589 12.4733C13.1233 12.8523 12.9513 13.2055 12.6749 13.4672L11.8223 14.2747C11.5471 14.5353 11.2077 14.7183 10.8387 14.8049C10.4696 14.8915 10.0842 14.8787 9.72178 14.7678C7.93549 14.2209 6.28121 12.5981 4.73664 9.92208C3.18864 7.24208 2.60406 4.98151 3.01149 3.13466C3.09367 2.76252 3.2736 2.41902 3.53275 2.13959C3.79189 1.86015 4.12088 1.65488 4.48578 1.54494V1.54494Z" fill="white"/>
</svg>
