<svg width="559" height="111" viewBox="0 0 559 111" fill="none" xmlns="http://www.w3.org/2000/svg">
<path d="M42.1444 83.5202H37.2804L36.3844 86.0002H34.8484L38.8804 74.9122H40.5604L44.5764 86.0002H43.0404L42.1444 83.5202ZM41.7284 82.3362L39.7124 76.7042L37.6964 82.3362H41.7284ZM50.6057 77.0722C51.6723 77.0722 52.5363 77.3975 53.1977 78.0482C53.859 78.6882 54.1897 79.6162 54.1897 80.8322V86.0002H52.7497V81.0402C52.7497 80.1655 52.531 79.4989 52.0937 79.0402C51.6563 78.5709 51.059 78.3362 50.3017 78.3362C49.5337 78.3362 48.9203 78.5762 48.4617 79.0562C48.0137 79.5362 47.7897 80.2349 47.7897 81.1522V86.0002H46.3337V77.2322H47.7897V78.4802C48.0777 78.0322 48.467 77.6855 48.9577 77.4402C49.459 77.1949 50.0083 77.0722 50.6057 77.0722ZM68.8337 81.2802C68.8337 81.5575 68.8177 81.8509 68.7857 82.1602H61.7777C61.831 83.0242 62.1243 83.7015 62.6577 84.1922C63.2017 84.6722 63.8577 84.9122 64.6257 84.9122C65.255 84.9122 65.7777 84.7682 66.1937 84.4802C66.6203 84.1815 66.919 83.7869 67.0897 83.2962H68.6577C68.423 84.1389 67.9537 84.8269 67.2497 85.3602C66.5457 85.8829 65.671 86.1442 64.6257 86.1442C63.7937 86.1442 63.047 85.9575 62.3857 85.5842C61.735 85.2109 61.223 84.6829 60.8497 84.0002C60.4763 83.3069 60.2897 82.5069 60.2897 81.6002C60.2897 80.6935 60.471 79.8989 60.8337 79.2162C61.1963 78.5335 61.703 78.0109 62.3537 77.6482C63.015 77.2749 63.7723 77.0882 64.6257 77.0882C65.4577 77.0882 66.1937 77.2695 66.8337 77.6322C67.4737 77.9949 67.9643 78.4962 68.3057 79.1362C68.6577 79.7655 68.8337 80.4802 68.8337 81.2802ZM67.3297 80.9762C67.3297 80.4215 67.207 79.9469 66.9617 79.5522C66.7163 79.1469 66.3803 78.8429 65.9537 78.6402C65.5377 78.4269 65.0737 78.3202 64.5617 78.3202C63.8257 78.3202 63.1963 78.5549 62.6737 79.0242C62.1617 79.4935 61.8683 80.1442 61.7937 80.9762H67.3297ZM81.2995 77.0722C81.9822 77.0722 82.5902 77.2162 83.1235 77.5042C83.6569 77.7815 84.0782 78.2029 84.3875 78.7682C84.6969 79.3335 84.8515 80.0215 84.8515 80.8322V86.0002H83.4115V81.0402C83.4115 80.1655 83.1929 79.4989 82.7555 79.0402C82.3289 78.5709 81.7475 78.3362 81.0115 78.3362C80.2542 78.3362 79.6515 78.5815 79.2035 79.0722C78.7555 79.5522 78.5315 80.2509 78.5315 81.1682V86.0002H77.0915V81.0402C77.0915 80.1655 76.8729 79.4989 76.4355 79.0402C76.0089 78.5709 75.4275 78.3362 74.6915 78.3362C73.9342 78.3362 73.3315 78.5815 72.8835 79.0722C72.4355 79.5522 72.2115 80.2509 72.2115 81.1682V86.0002H70.7555V77.2322H72.2115V78.4962C72.4995 78.0375 72.8835 77.6855 73.3635 77.4402C73.8542 77.1949 74.3929 77.0722 74.9795 77.0722C75.7155 77.0722 76.3662 77.2375 76.9315 77.5682C77.4969 77.8989 77.9182 78.3842 78.1955 79.0242C78.4409 78.4055 78.8462 77.9255 79.4115 77.5842C79.9769 77.2429 80.6062 77.0722 81.2995 77.0722ZM86.6959 81.5842C86.6959 80.6882 86.8772 79.9042 87.2399 79.2322C87.6026 78.5495 88.0986 78.0215 88.7279 77.6482C89.3679 77.2749 90.0772 77.0882 90.8559 77.0882C91.6239 77.0882 92.2906 77.2535 92.8559 77.5842C93.4212 77.9149 93.8426 78.3309 94.1199 78.8322V77.2322H95.5919V86.0002H94.1199V84.3682C93.8319 84.8802 93.3999 85.3069 92.8239 85.6482C92.2586 85.9789 91.5972 86.1442 90.8399 86.1442C90.0612 86.1442 89.3572 85.9522 88.7279 85.5682C88.0986 85.1842 87.6026 84.6455 87.2399 83.9522C86.8772 83.2589 86.6959 82.4695 86.6959 81.5842ZM94.1199 81.6002C94.1199 80.9389 93.9866 80.3629 93.7199 79.8722C93.4532 79.3815 93.0906 79.0082 92.6319 78.7522C92.1839 78.4855 91.6879 78.3522 91.1439 78.3522C90.5999 78.3522 90.1039 78.4802 89.6559 78.7362C89.2079 78.9922 88.8506 79.3655 88.5839 79.8562C88.3172 80.3469 88.1839 80.9229 88.1839 81.5842C88.1839 82.2562 88.3172 82.8429 88.5839 83.3442C88.8506 83.8349 89.2079 84.2135 89.6559 84.4802C90.1039 84.7362 90.5999 84.8642 91.1439 84.8642C91.6879 84.8642 92.1839 84.7362 92.6319 84.4802C93.0906 84.2135 93.4532 83.8349 93.7199 83.3442C93.9866 82.8429 94.1199 82.2615 94.1199 81.6002ZM98.8044 75.8082C98.5271 75.8082 98.2924 75.7122 98.1004 75.5202C97.9084 75.3282 97.8124 75.0935 97.8124 74.8162C97.8124 74.5389 97.9084 74.3042 98.1004 74.1122C98.2924 73.9202 98.5271 73.8242 98.8044 73.8242C99.0711 73.8242 99.2951 73.9202 99.4764 74.1122C99.6684 74.3042 99.7644 74.5389 99.7644 74.8162C99.7644 75.0935 99.6684 75.3282 99.4764 75.5202C99.2951 75.7122 99.0711 75.8082 98.8044 75.8082ZM99.5084 77.2322V86.0002H98.0524V77.2322H99.5084ZM103.446 74.1602V86.0002H101.99V74.1602H103.446ZM114.545 77.0722C115.206 77.0722 115.804 77.2162 116.337 77.5042C116.87 77.7815 117.286 78.2029 117.585 78.7682C117.894 79.3335 118.049 80.0215 118.049 80.8322V86.0002H116.609V81.0402C116.609 80.1655 116.39 79.4989 115.953 79.0402C115.516 78.5709 114.918 78.3362 114.161 78.3362C113.393 78.3362 112.78 78.5762 112.321 79.0562C111.873 79.5362 111.649 80.2349 111.649 81.1522V86.0002H110.193V74.1602H111.649V78.4802C111.937 78.0322 112.332 77.6855 112.833 77.4402C113.345 77.1949 113.916 77.0722 114.545 77.0722ZM119.883 81.5842C119.883 80.6882 120.065 79.9042 120.427 79.2322C120.79 78.5495 121.286 78.0215 121.915 77.6482C122.555 77.2749 123.265 77.0882 124.043 77.0882C124.811 77.0882 125.478 77.2535 126.043 77.5842C126.609 77.9149 127.03 78.3309 127.307 78.8322V77.2322H128.779V86.0002H127.307V84.3682C127.019 84.8802 126.587 85.3069 126.011 85.6482C125.446 85.9789 124.785 86.1442 124.027 86.1442C123.249 86.1442 122.545 85.9522 121.915 85.5682C121.286 85.1842 120.79 84.6455 120.427 83.9522C120.065 83.2589 119.883 82.4695 119.883 81.5842ZM127.307 81.6002C127.307 80.9389 127.174 80.3629 126.907 79.8722C126.641 79.3815 126.278 79.0082 125.819 78.7522C125.371 78.4855 124.875 78.3522 124.331 78.3522C123.787 78.3522 123.291 78.4802 122.843 78.7362C122.395 78.9922 122.038 79.3655 121.771 79.8562C121.505 80.3469 121.371 80.9229 121.371 81.5842C121.371 82.2562 121.505 82.8429 121.771 83.3442C122.038 83.8349 122.395 84.2135 122.843 84.4802C123.291 84.7362 123.787 84.8642 124.331 84.8642C124.875 84.8642 125.371 84.7362 125.819 84.4802C126.278 84.2135 126.641 83.8349 126.907 83.3442C127.174 82.8429 127.307 82.2615 127.307 81.6002ZM134.344 86.1442C133.672 86.1442 133.069 86.0322 132.536 85.8082C132.002 85.5735 131.581 85.2535 131.272 84.8482C130.962 84.4322 130.792 83.9575 130.76 83.4242H132.264C132.306 83.8615 132.509 84.2189 132.872 84.4962C133.245 84.7735 133.73 84.9122 134.328 84.9122C134.882 84.9122 135.32 84.7895 135.64 84.5442C135.96 84.2989 136.12 83.9895 136.12 83.6162C136.12 83.2322 135.949 82.9495 135.608 82.7682C135.266 82.5762 134.738 82.3895 134.024 82.2082C133.373 82.0375 132.84 81.8669 132.424 81.6962C132.018 81.5149 131.666 81.2535 131.368 80.9122C131.08 80.5602 130.936 80.1015 130.936 79.5362C130.936 79.0882 131.069 78.6775 131.336 78.3042C131.602 77.9309 131.981 77.6375 132.472 77.4242C132.962 77.2002 133.522 77.0882 134.152 77.0882C135.122 77.0882 135.906 77.3335 136.504 77.8242C137.101 78.3149 137.421 78.9869 137.464 79.8402H136.008C135.976 79.3815 135.789 79.0135 135.448 78.7362C135.117 78.4589 134.669 78.3202 134.104 78.3202C133.581 78.3202 133.165 78.4322 132.856 78.6562C132.546 78.8802 132.392 79.1735 132.392 79.5362C132.392 79.8242 132.482 80.0642 132.664 80.2562C132.856 80.4375 133.09 80.5869 133.368 80.7042C133.656 80.8109 134.05 80.9335 134.552 81.0722C135.181 81.2429 135.693 81.4135 136.088 81.5842C136.482 81.7442 136.818 81.9895 137.096 82.3202C137.384 82.6509 137.533 83.0829 137.544 83.6162C137.544 84.0962 137.41 84.5282 137.144 84.9122C136.877 85.2962 136.498 85.6002 136.008 85.8242C135.528 86.0375 134.973 86.1442 134.344 86.1442ZM145.321 78.8642C145.619 78.3415 146.057 77.9149 146.633 77.5842C147.209 77.2535 147.865 77.0882 148.601 77.0882C149.39 77.0882 150.099 77.2749 150.729 77.6482C151.358 78.0215 151.854 78.5495 152.217 79.2322C152.579 79.9042 152.761 80.6882 152.761 81.5842C152.761 82.4695 152.579 83.2589 152.217 83.9522C151.854 84.6455 151.353 85.1842 150.713 85.5682C150.083 85.9522 149.379 86.1442 148.601 86.1442C147.843 86.1442 147.177 85.9789 146.601 85.6482C146.035 85.3175 145.609 84.8962 145.321 84.3842V86.0002H143.865V74.1602H145.321V78.8642ZM151.273 81.5842C151.273 80.9229 151.139 80.3469 150.873 79.8562C150.606 79.3655 150.243 78.9922 149.785 78.7362C149.337 78.4802 148.841 78.3522 148.297 78.3522C147.763 78.3522 147.267 78.4855 146.809 78.7522C146.361 79.0082 145.998 79.3869 145.721 79.8882C145.454 80.3789 145.321 80.9495 145.321 81.6002C145.321 82.2615 145.454 82.8429 145.721 83.3442C145.998 83.8349 146.361 84.2135 146.809 84.4802C147.267 84.7362 147.763 84.8642 148.297 84.8642C148.841 84.8642 149.337 84.7362 149.785 84.4802C150.243 84.2135 150.606 83.8349 150.873 83.3442C151.139 82.8429 151.273 82.2562 151.273 81.5842ZM162.677 81.2802C162.677 81.5575 162.661 81.8509 162.629 82.1602H155.621C155.675 83.0242 155.968 83.7015 156.501 84.1922C157.045 84.6722 157.701 84.9122 158.469 84.9122C159.099 84.9122 159.621 84.7682 160.037 84.4802C160.464 84.1815 160.763 83.7869 160.933 83.2962H162.501C162.267 84.1389 161.797 84.8269 161.093 85.3602C160.389 85.8829 159.515 86.1442 158.469 86.1442C157.637 86.1442 156.891 85.9575 156.229 85.5842C155.579 85.2109 155.067 84.6829 154.693 84.0002C154.32 83.3069 154.133 82.5069 154.133 81.6002C154.133 80.6935 154.315 79.8989 154.677 79.2162C155.04 78.5335 155.547 78.0109 156.197 77.6482C156.859 77.2749 157.616 77.0882 158.469 77.0882C159.301 77.0882 160.037 77.2695 160.677 77.6322C161.317 77.9949 161.808 78.4962 162.149 79.1362C162.501 79.7655 162.677 80.4802 162.677 81.2802ZM161.173 80.9762C161.173 80.4215 161.051 79.9469 160.805 79.5522C160.56 79.1469 160.224 78.8429 159.797 78.6402C159.381 78.4269 158.917 78.3202 158.405 78.3202C157.669 78.3202 157.04 78.5549 156.517 79.0242C156.005 79.4935 155.712 80.1442 155.637 80.9762H161.173ZM172.599 81.2802C172.599 81.5575 172.583 81.8509 172.551 82.1602H165.543C165.597 83.0242 165.89 83.7015 166.423 84.1922C166.967 84.6722 167.623 84.9122 168.391 84.9122C169.021 84.9122 169.543 84.7682 169.959 84.4802C170.386 84.1815 170.685 83.7869 170.855 83.2962H172.423C172.189 84.1389 171.719 84.8269 171.015 85.3602C170.311 85.8829 169.437 86.1442 168.391 86.1442C167.559 86.1442 166.813 85.9575 166.151 85.5842C165.501 85.2109 164.989 84.6829 164.615 84.0002C164.242 83.3069 164.055 82.5069 164.055 81.6002C164.055 80.6935 164.237 79.8989 164.599 79.2162C164.962 78.5335 165.469 78.0109 166.119 77.6482C166.781 77.2749 167.538 77.0882 168.391 77.0882C169.223 77.0882 169.959 77.2695 170.599 77.6322C171.239 77.9949 171.73 78.4962 172.071 79.1362C172.423 79.7655 172.599 80.4802 172.599 81.2802ZM171.095 80.9762C171.095 80.4215 170.973 79.9469 170.727 79.5522C170.482 79.1469 170.146 78.8429 169.719 78.6402C169.303 78.4269 168.839 78.3202 168.327 78.3202C167.591 78.3202 166.962 78.5549 166.439 79.0242C165.927 79.4935 165.634 80.1442 165.559 80.9762H171.095ZM178.793 77.0722C179.86 77.0722 180.724 77.3975 181.385 78.0482C182.046 78.6882 182.377 79.6162 182.377 80.8322V86.0002H180.937V81.0402C180.937 80.1655 180.718 79.4989 180.281 79.0402C179.844 78.5709 179.246 78.3362 178.489 78.3362C177.721 78.3362 177.108 78.5762 176.649 79.0562C176.201 79.5362 175.977 80.2349 175.977 81.1522V86.0002H174.521V77.2322H175.977V78.4802C176.265 78.0322 176.654 77.6855 177.145 77.4402C177.646 77.1949 178.196 77.0722 178.793 77.0722ZM192.125 86.1442C191.453 86.1442 190.85 86.0322 190.317 85.8082C189.784 85.5735 189.362 85.2535 189.053 84.8482C188.744 84.4322 188.573 83.9575 188.541 83.4242H190.045C190.088 83.8615 190.29 84.2189 190.653 84.4962C191.026 84.7735 191.512 84.9122 192.109 84.9122C192.664 84.9122 193.101 84.7895 193.421 84.5442C193.741 84.2989 193.901 83.9895 193.901 83.6162C193.901 83.2322 193.73 82.9495 193.389 82.7682C193.048 82.5762 192.52 82.3895 191.805 82.2082C191.154 82.0375 190.621 81.8669 190.205 81.6962C189.8 81.5149 189.448 81.2535 189.149 80.9122C188.861 80.5602 188.717 80.1015 188.717 79.5362C188.717 79.0882 188.85 78.6775 189.117 78.3042C189.384 77.9309 189.762 77.6375 190.253 77.4242C190.744 77.2002 191.304 77.0882 191.933 77.0882C192.904 77.0882 193.688 77.3335 194.285 77.8242C194.882 78.3149 195.202 78.9869 195.245 79.8402H193.789C193.757 79.3815 193.57 79.0135 193.229 78.7362C192.898 78.4589 192.45 78.3202 191.885 78.3202C191.362 78.3202 190.946 78.4322 190.637 78.6562C190.328 78.8802 190.173 79.1735 190.173 79.5362C190.173 79.8242 190.264 80.0642 190.445 80.2562C190.637 80.4375 190.872 80.5869 191.149 80.7042C191.437 80.8109 191.832 80.9335 192.333 81.0722C192.962 81.2429 193.474 81.4135 193.869 81.5842C194.264 81.7442 194.6 81.9895 194.877 82.3202C195.165 82.6509 195.314 83.0829 195.325 83.6162C195.325 84.0962 195.192 84.5282 194.925 84.9122C194.658 85.2962 194.28 85.6002 193.789 85.8242C193.309 86.0375 192.754 86.1442 192.125 86.1442ZM205.38 81.2802C205.38 81.5575 205.364 81.8509 205.332 82.1602H198.324C198.378 83.0242 198.671 83.7015 199.204 84.1922C199.748 84.6722 200.404 84.9122 201.172 84.9122C201.802 84.9122 202.324 84.7682 202.74 84.4802C203.167 84.1815 203.466 83.7869 203.636 83.2962H205.204C204.97 84.1389 204.5 84.8269 203.796 85.3602C203.092 85.8829 202.218 86.1442 201.172 86.1442C200.34 86.1442 199.594 85.9575 198.932 85.5842C198.282 85.2109 197.77 84.6829 197.396 84.0002C197.023 83.3069 196.836 82.5069 196.836 81.6002C196.836 80.6935 197.018 79.8989 197.38 79.2162C197.743 78.5335 198.25 78.0109 198.9 77.6482C199.562 77.2749 200.319 77.0882 201.172 77.0882C202.004 77.0882 202.74 77.2695 203.38 77.6322C204.02 77.9949 204.511 78.4962 204.852 79.1362C205.204 79.7655 205.38 80.4802 205.38 81.2802ZM203.876 80.9762C203.876 80.4215 203.754 79.9469 203.508 79.5522C203.263 79.1469 202.927 78.8429 202.5 78.6402C202.084 78.4269 201.62 78.3202 201.108 78.3202C200.372 78.3202 199.743 78.5549 199.22 79.0242C198.708 79.4935 198.415 80.1442 198.34 80.9762H203.876ZM211.574 77.0722C212.641 77.0722 213.505 77.3975 214.166 78.0482C214.828 78.6882 215.158 79.6162 215.158 80.8322V86.0002H213.718V81.0402C213.718 80.1655 213.5 79.4989 213.062 79.0402C212.625 78.5709 212.028 78.3362 211.27 78.3362C210.502 78.3362 209.889 78.5762 209.43 79.0562C208.982 79.5362 208.758 80.2349 208.758 81.1522V86.0002H207.302V77.2322H208.758V78.4802C209.046 78.0322 209.436 77.6855 209.926 77.4402C210.428 77.1949 210.977 77.0722 211.574 77.0722ZM219.313 78.4322V83.6002C219.313 84.0269 219.403 84.3309 219.585 84.5122C219.766 84.6829 220.081 84.7682 220.529 84.7682H221.601V86.0002H220.289C219.478 86.0002 218.87 85.8135 218.465 85.4402C218.059 85.0669 217.857 84.4535 217.857 83.6002V78.4322H216.721V77.2322H217.857V75.0242H219.313V77.2322H221.601V78.4322H219.313ZM229.406 78.4322V83.6002C229.406 84.0269 229.497 84.3309 229.678 84.5122C229.86 84.6829 230.174 84.7682 230.622 84.7682H231.694V86.0002H230.382C229.572 86.0002 228.964 85.8135 228.558 85.4402C228.153 85.0669 227.95 84.4535 227.95 83.6002V78.4322H226.814V77.2322H227.95V75.0242H229.406V77.2322H231.694V78.4322H229.406ZM237.283 86.1442C236.461 86.1442 235.715 85.9575 235.043 85.5842C234.381 85.2109 233.859 84.6829 233.475 84.0002C233.101 83.3069 232.915 82.5069 232.915 81.6002C232.915 80.7042 233.107 79.9149 233.491 79.2322C233.885 78.5389 234.419 78.0109 235.091 77.6482C235.763 77.2749 236.515 77.0882 237.347 77.0882C238.179 77.0882 238.931 77.2749 239.603 77.6482C240.275 78.0109 240.803 78.5335 241.187 79.2162C241.581 79.8989 241.779 80.6935 241.779 81.6002C241.779 82.5069 241.576 83.3069 241.171 84.0002C240.776 84.6829 240.237 85.2109 239.555 85.5842C238.872 85.9575 238.115 86.1442 237.283 86.1442ZM237.283 84.8642C237.805 84.8642 238.296 84.7415 238.755 84.4962C239.213 84.2509 239.581 83.8829 239.859 83.3922C240.147 82.9015 240.291 82.3042 240.291 81.6002C240.291 80.8962 240.152 80.2989 239.875 79.8082C239.597 79.3175 239.235 78.9549 238.787 78.7202C238.339 78.4749 237.853 78.3522 237.331 78.3522C236.797 78.3522 236.307 78.4749 235.859 78.7202C235.421 78.9549 235.069 79.3175 234.803 79.8082C234.536 80.2989 234.403 80.8962 234.403 81.6002C234.403 82.3149 234.531 82.9175 234.787 83.4082C235.053 83.8989 235.405 84.2669 235.843 84.5122C236.28 84.7469 236.76 84.8642 237.283 84.8642ZM255.511 77.2322L250.231 90.1282H248.727L250.455 85.9042L246.919 77.2322H248.535L251.287 84.3362L254.007 77.2322H255.511ZM260.798 86.1442C259.977 86.1442 259.23 85.9575 258.558 85.5842C257.897 85.2109 257.374 84.6829 256.99 84.0002C256.617 83.3069 256.43 82.5069 256.43 81.6002C256.43 80.7042 256.622 79.9149 257.006 79.2322C257.401 78.5389 257.934 78.0109 258.606 77.6482C259.278 77.2749 260.03 77.0882 260.862 77.0882C261.694 77.0882 262.446 77.2749 263.118 77.6482C263.79 78.0109 264.318 78.5335 264.702 79.2162C265.097 79.8989 265.294 80.6935 265.294 81.6002C265.294 82.5069 265.092 83.3069 264.686 84.0002C264.292 84.6829 263.753 85.2109 263.07 85.5842C262.388 85.9575 261.63 86.1442 260.798 86.1442ZM260.798 84.8642C261.321 84.8642 261.812 84.7415 262.27 84.4962C262.729 84.2509 263.097 83.8829 263.374 83.3922C263.662 82.9015 263.806 82.3042 263.806 81.6002C263.806 80.8962 263.668 80.2989 263.39 79.8082C263.113 79.3175 262.75 78.9549 262.302 78.7202C261.854 78.4749 261.369 78.3522 260.846 78.3522C260.313 78.3522 259.822 78.4749 259.374 78.7202C258.937 78.9549 258.585 79.3175 258.318 79.8082C258.052 80.2989 257.918 80.8962 257.918 81.6002C257.918 82.3149 258.046 82.9175 258.302 83.4082C258.569 83.8989 258.921 84.2669 259.358 84.5122C259.796 84.7469 260.276 84.8642 260.798 84.8642ZM274.985 77.2322V86.0002H273.529V84.7042C273.251 85.1522 272.862 85.5042 272.361 85.7602C271.87 86.0055 271.326 86.1282 270.729 86.1282C270.046 86.1282 269.433 85.9895 268.889 85.7122C268.345 85.4242 267.913 84.9975 267.593 84.4322C267.283 83.8669 267.129 83.1789 267.129 82.3682V77.2322H268.569V82.1762C268.569 83.0402 268.787 83.7069 269.225 84.1762C269.662 84.6349 270.259 84.8642 271.017 84.8642C271.795 84.8642 272.409 84.6242 272.857 84.1442C273.305 83.6642 273.529 82.9655 273.529 82.0482V77.2322H274.985ZM278.899 78.6562C279.155 78.1549 279.518 77.7655 279.987 77.4882C280.467 77.2109 281.048 77.0722 281.731 77.0722V78.5762H281.347C279.715 78.5762 278.899 79.4615 278.899 81.2322V86.0002H277.443V77.2322H278.899V78.6562ZM288.429 75.8082C288.152 75.8082 287.917 75.7122 287.725 75.5202C287.533 75.3282 287.437 75.0935 287.437 74.8162C287.437 74.5389 287.533 74.3042 287.725 74.1122C287.917 73.9202 288.152 73.8242 288.429 73.8242C288.696 73.8242 288.92 73.9202 289.101 74.1122C289.293 74.3042 289.389 74.5389 289.389 74.8162C289.389 75.0935 289.293 75.3282 289.101 75.5202C288.92 75.7122 288.696 75.8082 288.429 75.8082ZM289.133 77.2322V86.0002H287.677V77.2322H289.133ZM295.887 77.0722C296.953 77.0722 297.817 77.3975 298.479 78.0482C299.14 78.6882 299.471 79.6162 299.471 80.8322V86.0002H298.031V81.0402C298.031 80.1655 297.812 79.4989 297.375 79.0402C296.937 78.5709 296.34 78.3362 295.583 78.3362C294.815 78.3362 294.201 78.5762 293.743 79.0562C293.295 79.5362 293.071 80.2349 293.071 81.1522V86.0002H291.615V77.2322H293.071V78.4802C293.359 78.0322 293.748 77.6855 294.239 77.4402C294.74 77.1949 295.289 77.0722 295.887 77.0722ZM303.305 78.8642C303.604 78.3415 304.041 77.9149 304.617 77.5842C305.193 77.2535 305.849 77.0882 306.585 77.0882C307.375 77.0882 308.084 77.2749 308.713 77.6482C309.343 78.0215 309.839 78.5495 310.201 79.2322C310.564 79.9042 310.745 80.6882 310.745 81.5842C310.745 82.4695 310.564 83.2589 310.201 83.9522C309.839 84.6455 309.337 85.1842 308.697 85.5682C308.068 85.9522 307.364 86.1442 306.585 86.1442C305.828 86.1442 305.161 85.9789 304.585 85.6482C304.02 85.3175 303.593 84.8962 303.305 84.3842V86.0002H301.849V74.1602H303.305V78.8642ZM309.257 81.5842C309.257 80.9229 309.124 80.3469 308.857 79.8562C308.591 79.3655 308.228 78.9922 307.769 78.7362C307.321 78.4802 306.825 78.3522 306.281 78.3522C305.748 78.3522 305.252 78.4855 304.793 78.7522C304.345 79.0082 303.983 79.3869 303.705 79.8882C303.439 80.3789 303.305 80.9495 303.305 81.6002C303.305 82.2615 303.439 82.8429 303.705 83.3442C303.983 83.8349 304.345 84.2135 304.793 84.4802C305.252 84.7362 305.748 84.8642 306.281 84.8642C306.825 84.8642 307.321 84.7362 307.769 84.4802C308.228 84.2135 308.591 83.8349 308.857 83.3442C309.124 82.8429 309.257 82.2562 309.257 81.5842ZM316.486 86.1442C315.664 86.1442 314.918 85.9575 314.246 85.5842C313.584 85.2109 313.062 84.6829 312.678 84.0002C312.304 83.3069 312.118 82.5069 312.118 81.6002C312.118 80.7042 312.31 79.9149 312.694 79.2322C313.088 78.5389 313.622 78.0109 314.294 77.6482C314.966 77.2749 315.718 77.0882 316.55 77.0882C317.382 77.0882 318.134 77.2749 318.806 77.6482C319.478 78.0109 320.006 78.5335 320.39 79.2162C320.784 79.8989 320.982 80.6935 320.982 81.6002C320.982 82.5069 320.779 83.3069 320.374 84.0002C319.979 84.6829 319.44 85.2109 318.758 85.5842C318.075 85.9575 317.318 86.1442 316.486 86.1442ZM316.486 84.8642C317.008 84.8642 317.499 84.7415 317.958 84.4962C318.416 84.2509 318.784 83.8829 319.062 83.3922C319.35 82.9015 319.494 82.3042 319.494 81.6002C319.494 80.8962 319.355 80.2989 319.078 79.8082C318.8 79.3175 318.438 78.9549 317.99 78.7202C317.542 78.4749 317.056 78.3522 316.534 78.3522C316 78.3522 315.51 78.4749 315.062 78.7202C314.624 78.9549 314.272 79.3175 314.006 79.8082C313.739 80.2989 313.606 80.8962 313.606 81.6002C313.606 82.3149 313.734 82.9175 313.99 83.4082C314.256 83.8989 314.608 84.2669 315.046 84.5122C315.483 84.7469 315.963 84.8642 316.486 84.8642ZM327.472 86.0002L325.392 82.7362L323.392 86.0002H321.872L324.704 81.6482L321.872 77.2322H323.52L325.6 80.4802L327.584 77.2322H329.104L326.288 81.5682L329.12 86.0002H327.472ZM331.016 86.0962C330.739 86.0962 330.504 86.0002 330.312 85.8082C330.12 85.6162 330.024 85.3815 330.024 85.1042C330.024 84.8269 330.12 84.5922 330.312 84.4002C330.504 84.2082 330.739 84.1122 331.016 84.1122C331.283 84.1122 331.507 84.2082 331.688 84.4002C331.88 84.5922 331.976 84.8269 331.976 85.1042C331.976 85.3815 331.88 85.6162 331.688 85.8082C331.507 86.0002 331.283 86.0962 331.016 86.0962Z" fill="black"/>
<path d="M438.884 74.8482C440.1 74.8482 441.15 75.0775 442.036 75.5362C442.932 75.9842 443.614 76.6295 444.084 77.4722C444.564 78.3149 444.804 79.3069 444.804 80.4482C444.804 81.5895 444.564 82.5815 444.084 83.4242C443.614 84.2562 442.932 84.8962 442.036 85.3442C441.15 85.7815 440.1 86.0002 438.884 86.0002H435.412V74.8482H438.884ZM438.884 84.8002C440.324 84.8002 441.422 84.4215 442.18 83.6642C442.937 82.8962 443.316 81.8242 443.316 80.4482C443.316 79.0615 442.932 77.9789 442.164 77.2002C441.406 76.4215 440.313 76.0322 438.884 76.0322H436.868V84.8002H438.884ZM447.476 75.8082C447.199 75.8082 446.964 75.7122 446.772 75.5202C446.58 75.3282 446.484 75.0935 446.484 74.8162C446.484 74.5389 446.58 74.3042 446.772 74.1122C446.964 73.9202 447.199 73.8242 447.476 73.8242C447.743 73.8242 447.967 73.9202 448.148 74.1122C448.34 74.3042 448.436 74.5389 448.436 74.8162C448.436 75.0935 448.34 75.3282 448.148 75.5202C447.967 75.7122 447.743 75.8082 447.476 75.8082ZM448.18 77.2322V86.0002H446.724V77.2322H448.18ZM450.118 81.5842C450.118 80.6882 450.299 79.9042 450.662 79.2322C451.024 78.5495 451.52 78.0215 452.15 77.6482C452.79 77.2749 453.504 77.0882 454.294 77.0882C454.976 77.0882 455.611 77.2482 456.198 77.5682C456.784 77.8775 457.232 78.2882 457.542 78.8002V74.1602H459.014V86.0002H457.542V84.3522C457.254 84.8749 456.827 85.3069 456.262 85.6482C455.696 85.9789 455.035 86.1442 454.278 86.1442C453.499 86.1442 452.79 85.9522 452.15 85.5682C451.52 85.1842 451.024 84.6455 450.662 83.9522C450.299 83.2589 450.118 82.4695 450.118 81.5842ZM457.542 81.6002C457.542 80.9389 457.408 80.3629 457.142 79.8722C456.875 79.3815 456.512 79.0082 456.054 78.7522C455.606 78.4855 455.11 78.3522 454.566 78.3522C454.022 78.3522 453.526 78.4802 453.078 78.7362C452.63 78.9922 452.272 79.3655 452.006 79.8562C451.739 80.3469 451.606 80.9229 451.606 81.5842C451.606 82.2562 451.739 82.8429 452.006 83.3442C452.272 83.8349 452.63 84.2135 453.078 84.4802C453.526 84.7362 454.022 84.8642 454.566 84.8642C455.11 84.8642 455.606 84.7362 456.054 84.4802C456.512 84.2135 456.875 83.8349 457.142 83.3442C457.408 82.8429 457.542 82.2615 457.542 81.6002ZM465.746 77.0722C466.813 77.0722 467.677 77.3975 468.338 78.0482C469 78.6882 469.33 79.6162 469.33 80.8322V86.0002H467.89V81.0402C467.89 80.1655 467.672 79.4989 467.234 79.0402C466.797 78.5709 466.2 78.3362 465.442 78.3362C464.674 78.3362 464.061 78.5762 463.602 79.0562C463.154 79.5362 462.93 80.2349 462.93 81.1522V86.0002H461.474V77.2322H462.93V78.4802C463.218 78.0322 463.608 77.6855 464.098 77.4402C464.6 77.1949 465.149 77.0722 465.746 77.0722ZM471.933 74.8482H473.549L472.013 78.4802H470.989L471.933 74.8482ZM476.985 78.4322V83.6002C476.985 84.0269 477.075 84.3309 477.257 84.5122C477.438 84.6829 477.753 84.7682 478.201 84.7682H479.273V86.0002H477.961C477.15 86.0002 476.542 85.8135 476.137 85.4402C475.731 85.0669 475.529 84.4535 475.529 83.6002V78.4322H474.393V77.2322H475.529V75.0242H476.985V77.2322H479.273V78.4322H476.985ZM486.758 78.6562C487.014 78.1549 487.377 77.7655 487.846 77.4882C488.326 77.2109 488.908 77.0722 489.59 77.0722V78.5762H489.206C487.574 78.5762 486.758 79.4615 486.758 81.2322V86.0002H485.302V77.2322H486.758V78.6562ZM499.271 81.2802C499.271 81.5575 499.255 81.8509 499.223 82.1602H492.215C492.268 83.0242 492.562 83.7015 493.095 84.1922C493.639 84.6722 494.295 84.9122 495.063 84.9122C495.692 84.9122 496.215 84.7682 496.631 84.4802C497.058 84.1815 497.356 83.7869 497.527 83.2962H499.095C498.86 84.1389 498.391 84.8269 497.687 85.3602C496.983 85.8829 496.108 86.1442 495.063 86.1442C494.231 86.1442 493.484 85.9575 492.823 85.5842C492.172 85.2109 491.66 84.6829 491.287 84.0002C490.914 83.3069 490.727 82.5069 490.727 81.6002C490.727 80.6935 490.908 79.8989 491.271 79.2162C491.634 78.5335 492.14 78.0109 492.791 77.6482C493.452 77.2749 494.21 77.0882 495.063 77.0882C495.895 77.0882 496.631 77.2695 497.271 77.6322C497.911 77.9949 498.402 78.4962 498.743 79.1362C499.095 79.7655 499.271 80.4802 499.271 81.2802ZM497.767 80.9762C497.767 80.4215 497.644 79.9469 497.399 79.5522C497.154 79.1469 496.818 78.8429 496.391 78.6402C495.975 78.4269 495.511 78.3202 494.999 78.3202C494.263 78.3202 493.634 78.5549 493.111 79.0242C492.599 79.4935 492.306 80.1442 492.231 80.9762H497.767ZM500.649 81.6002C500.649 80.6935 500.83 79.9042 501.193 79.2322C501.556 78.5495 502.057 78.0215 502.697 77.6482C503.348 77.2749 504.089 77.0882 504.921 77.0882C505.998 77.0882 506.884 77.3495 507.577 77.8722C508.281 78.3949 508.745 79.1202 508.969 80.0482H507.401C507.252 79.5149 506.958 79.0935 506.521 78.7842C506.094 78.4749 505.561 78.3202 504.921 78.3202C504.089 78.3202 503.417 78.6082 502.905 79.1842C502.393 79.7495 502.137 80.5549 502.137 81.6002C502.137 82.6562 502.393 83.4722 502.905 84.0482C503.417 84.6242 504.089 84.9122 504.921 84.9122C505.561 84.9122 506.094 84.7629 506.521 84.4642C506.948 84.1655 507.241 83.7389 507.401 83.1842H508.969C508.734 84.0802 508.265 84.8002 507.561 85.3442C506.857 85.8775 505.977 86.1442 504.921 86.1442C504.089 86.1442 503.348 85.9575 502.697 85.5842C502.057 85.2109 501.556 84.6829 501.193 84.0002C500.83 83.3175 500.649 82.5175 500.649 81.6002ZM518.912 81.2802C518.912 81.5575 518.896 81.8509 518.864 82.1602H511.856C511.909 83.0242 512.202 83.7015 512.736 84.1922C513.28 84.6722 513.936 84.9122 514.704 84.9122C515.333 84.9122 515.856 84.7682 516.272 84.4802C516.698 84.1815 516.997 83.7869 517.168 83.2962H518.736C518.501 84.1389 518.032 84.8269 517.328 85.3602C516.624 85.8829 515.749 86.1442 514.704 86.1442C513.872 86.1442 513.125 85.9575 512.464 85.5842C511.813 85.2109 511.301 84.6829 510.928 84.0002C510.554 83.3069 510.368 82.5069 510.368 81.6002C510.368 80.6935 510.549 79.8989 510.912 79.2162C511.274 78.5335 511.781 78.0109 512.432 77.6482C513.093 77.2749 513.85 77.0882 514.704 77.0882C515.536 77.0882 516.272 77.2695 516.912 77.6322C517.552 77.9949 518.042 78.4962 518.384 79.1362C518.736 79.7655 518.912 80.4802 518.912 81.2802ZM517.408 80.9762C517.408 80.4215 517.285 79.9469 517.04 79.5522C516.794 79.1469 516.458 78.8429 516.032 78.6402C515.616 78.4269 515.152 78.3202 514.64 78.3202C513.904 78.3202 513.274 78.5549 512.752 79.0242C512.24 79.4935 511.946 80.1442 511.872 80.9762H517.408ZM521.586 75.8082C521.308 75.8082 521.074 75.7122 520.882 75.5202C520.69 75.3282 520.594 75.0935 520.594 74.8162C520.594 74.5389 520.69 74.3042 520.882 74.1122C521.074 73.9202 521.308 73.8242 521.586 73.8242C521.852 73.8242 522.076 73.9202 522.258 74.1122C522.45 74.3042 522.546 74.5389 522.546 74.8162C522.546 75.0935 522.45 75.3282 522.258 75.5202C522.076 75.7122 521.852 75.8082 521.586 75.8082ZM522.29 77.2322V86.0002H520.834V77.2322H522.29ZM528.035 84.6562L530.755 77.2322H532.307L528.867 86.0002H527.171L523.731 77.2322H525.299L528.035 84.6562ZM541.74 81.2802C541.74 81.5575 541.724 81.8509 541.692 82.1602H534.684C534.737 83.0242 535.03 83.7015 535.564 84.1922C536.108 84.6722 536.764 84.9122 537.532 84.9122C538.161 84.9122 538.684 84.7682 539.1 84.4802C539.526 84.1815 539.825 83.7869 539.996 83.2962H541.564C541.329 84.1389 540.86 84.8269 540.156 85.3602C539.452 85.8829 538.577 86.1442 537.532 86.1442C536.7 86.1442 535.953 85.9575 535.292 85.5842C534.641 85.2109 534.129 84.6829 533.756 84.0002C533.382 83.3069 533.196 82.5069 533.196 81.6002C533.196 80.6935 533.377 79.8989 533.74 79.2162C534.102 78.5335 534.609 78.0109 535.26 77.6482C535.921 77.2749 536.678 77.0882 537.532 77.0882C538.364 77.0882 539.1 77.2695 539.74 77.6322C540.38 77.9949 540.87 78.4962 541.212 79.1362C541.564 79.7655 541.74 80.4802 541.74 81.2802ZM540.236 80.9762C540.236 80.4215 540.113 79.9469 539.868 79.5522C539.622 79.1469 539.286 78.8429 538.86 78.6402C538.444 78.4269 537.98 78.3202 537.468 78.3202C536.732 78.3202 536.102 78.5549 535.58 79.0242C535.068 79.4935 534.774 80.1442 534.7 80.9762H540.236ZM546.51 74.7042C547.566 74.7042 548.419 75.0029 549.07 75.6002C549.72 76.1975 550.046 76.9975 550.046 78.0002C550.046 79.1202 549.699 79.9522 549.006 80.4962C548.312 81.0295 547.374 81.2962 546.19 81.2962L546.142 82.8162H544.878L544.814 80.2882H545.278C546.334 80.2882 547.16 80.1282 547.758 79.8082C548.355 79.4882 548.654 78.8855 548.654 78.0002C548.654 77.3602 548.462 76.8535 548.078 76.4802C547.694 76.1069 547.176 75.9202 546.526 75.9202C545.864 75.9202 545.342 76.1015 544.958 76.4642C544.584 76.8162 544.398 77.3015 544.398 77.9202H543.022C543.022 77.2802 543.166 76.7202 543.454 76.2402C543.742 75.7495 544.147 75.3709 544.67 75.1042C545.203 74.8375 545.816 74.7042 546.51 74.7042ZM545.502 86.0962C545.224 86.0962 544.99 86.0002 544.798 85.8082C544.606 85.6162 544.51 85.3815 544.51 85.1042C544.51 84.8269 544.606 84.5922 544.798 84.4002C544.99 84.2082 545.224 84.1122 545.502 84.1122C545.768 84.1122 545.992 84.2082 546.174 84.4002C546.366 84.5922 546.462 84.8269 546.462 85.1042C546.462 85.3815 546.366 85.6162 546.174 85.8082C545.992 86.0002 545.768 86.0962 545.502 86.0962Z" fill="black"/>
<path d="M480.812 97.8658C480.969 97.9724 481.077 98.1369 481.112 98.323C481.147 98.5092 481.107 98.7017 481 98.8583C480.894 99.0148 480.729 99.1226 480.543 99.1579C480.357 99.1932 480.164 99.1531 480.008 99.0465C479.348 98.5982 478.558 98.3835 477.762 98.4366C476.967 98.4896 476.212 98.8074 475.618 99.3394C475.024 99.8713 474.625 100.587 474.484 101.372C474.344 102.157 474.47 102.966 474.843 103.671C475.216 104.375 475.815 104.935 476.543 105.261C477.27 105.586 478.086 105.658 478.86 105.466C479.634 105.274 480.322 104.829 480.813 104.201C481.304 103.573 481.571 102.798 481.571 102.001C481.571 101.811 481.647 101.63 481.781 101.496C481.915 101.362 482.096 101.286 482.286 101.286C482.475 101.286 482.657 101.362 482.791 101.496C482.925 101.63 483 101.811 483 102.001C483 103.117 482.626 104.201 481.938 105.081C481.25 105.96 480.288 106.584 479.204 106.853C478.121 107.122 476.978 107.02 475.959 106.565C474.94 106.109 474.103 105.325 473.581 104.338C473.058 103.352 472.882 102.218 473.078 101.119C473.275 100.02 473.834 99.0189 474.665 98.2744C475.497 97.5298 476.554 97.0851 477.668 97.011C478.782 96.937 479.889 97.2379 480.812 97.8658Z" fill="#EE1100" fill-opacity="0.866667"/>
<path d="M480.528 103.792C480.449 103.842 480.36 103.877 480.268 103.893C480.176 103.91 480.081 103.908 479.989 103.888C479.898 103.868 479.811 103.83 479.734 103.776C479.657 103.722 479.591 103.654 479.541 103.575C479.49 103.496 479.456 103.408 479.439 103.315C479.423 103.223 479.425 103.128 479.445 103.037C479.465 102.945 479.503 102.858 479.557 102.781C479.61 102.704 479.679 102.639 479.758 102.588L482.245 100.998C482.404 100.899 482.596 100.867 482.779 100.908C482.962 100.95 483.121 101.062 483.223 101.22C483.324 101.378 483.358 101.57 483.319 101.753C483.28 101.937 483.171 102.098 483.014 102.201L480.528 103.792Z" fill="#EE1100" fill-opacity="0.866667"/>
<path d="M484.359 103.721C484.432 103.893 484.435 104.087 484.366 104.261C484.298 104.436 484.164 104.576 483.993 104.652C483.822 104.728 483.628 104.734 483.453 104.669C483.277 104.604 483.135 104.473 483.055 104.303L481.978 101.889C481.938 101.803 481.915 101.71 481.911 101.615C481.907 101.52 481.922 101.425 481.955 101.336C481.988 101.247 482.039 101.166 482.103 101.097C482.168 101.027 482.247 100.972 482.333 100.933C482.42 100.894 482.514 100.873 482.609 100.871C482.703 100.869 482.798 100.886 482.886 100.921C482.975 100.956 483.055 101.008 483.123 101.074C483.191 101.14 483.245 101.219 483.282 101.307L484.359 103.721Z" fill="#EE1100" fill-opacity="0.866667"/>
<path d="M496.112 107L493.456 102.44H491.696V107H490.24V95.8482H493.84C494.682 95.8482 495.392 95.9922 495.968 96.2802C496.554 96.5682 496.992 96.9575 497.28 97.4482C497.568 97.9389 497.712 98.4989 497.712 99.1282C497.712 99.8962 497.488 100.573 497.04 101.16C496.602 101.747 495.941 102.136 495.056 102.328L497.856 107H496.112ZM491.696 101.272H493.84C494.629 101.272 495.221 101.08 495.616 100.696C496.01 100.301 496.208 99.7789 496.208 99.1282C496.208 98.4669 496.01 97.9549 495.616 97.5922C495.232 97.2295 494.64 97.0481 493.84 97.0481H491.696V101.272ZM507.974 102.28C507.974 102.557 507.958 102.851 507.926 103.16H500.918C500.972 104.024 501.265 104.701 501.798 105.192C502.342 105.672 502.998 105.912 503.766 105.912C504.396 105.912 504.918 105.768 505.334 105.48C505.761 105.181 506.06 104.787 506.23 104.296H507.798C507.564 105.139 507.094 105.827 506.39 106.36C505.686 106.883 504.812 107.144 503.766 107.144C502.934 107.144 502.188 106.957 501.526 106.584C500.876 106.211 500.364 105.683 499.99 105C499.617 104.307 499.43 103.507 499.43 102.6C499.43 101.693 499.612 100.899 499.974 100.216C500.337 99.5335 500.844 99.0109 501.494 98.6482C502.156 98.2749 502.913 98.0882 503.766 98.0882C504.598 98.0882 505.334 98.2695 505.974 98.6322C506.614 98.9949 507.105 99.4962 507.446 100.136C507.798 100.765 507.974 101.48 507.974 102.28ZM506.47 101.976C506.47 101.421 506.348 100.947 506.102 100.552C505.857 100.147 505.521 99.8429 505.094 99.6402C504.678 99.4269 504.214 99.3202 503.702 99.3202C502.966 99.3202 502.337 99.5549 501.814 100.024C501.302 100.493 501.009 101.144 500.934 101.976H506.47ZM513 107.144C512.328 107.144 511.725 107.032 511.192 106.808C510.659 106.573 510.237 106.253 509.928 105.848C509.619 105.432 509.448 104.957 509.416 104.424H510.92C510.963 104.861 511.165 105.219 511.528 105.496C511.901 105.773 512.387 105.912 512.984 105.912C513.539 105.912 513.976 105.789 514.296 105.544C514.616 105.299 514.776 104.989 514.776 104.616C514.776 104.232 514.605 103.949 514.264 103.768C513.923 103.576 513.395 103.389 512.68 103.208C512.029 103.037 511.496 102.867 511.08 102.696C510.675 102.515 510.323 102.253 510.024 101.912C509.736 101.56 509.592 101.101 509.592 100.536C509.592 100.088 509.725 99.6775 509.992 99.3042C510.259 98.9309 510.637 98.6375 511.128 98.4242C511.619 98.2002 512.179 98.0882 512.808 98.0882C513.779 98.0882 514.563 98.3335 515.16 98.8242C515.757 99.3149 516.077 99.9868 516.12 100.84H514.664C514.632 100.381 514.445 100.013 514.104 99.7362C513.773 99.4589 513.325 99.3202 512.76 99.3202C512.237 99.3202 511.821 99.4322 511.512 99.6562C511.203 99.8802 511.048 100.173 511.048 100.536C511.048 100.824 511.139 101.064 511.32 101.256C511.512 101.437 511.747 101.587 512.024 101.704C512.312 101.811 512.707 101.933 513.208 102.072C513.837 102.243 514.349 102.413 514.744 102.584C515.139 102.744 515.475 102.989 515.752 103.32C516.04 103.651 516.189 104.083 516.2 104.616C516.2 105.096 516.067 105.528 515.8 105.912C515.533 106.296 515.155 106.6 514.664 106.824C514.184 107.037 513.629 107.144 513 107.144ZM526.255 102.28C526.255 102.557 526.239 102.851 526.207 103.16H519.199C519.253 104.024 519.546 104.701 520.079 105.192C520.623 105.672 521.279 105.912 522.047 105.912C522.677 105.912 523.199 105.768 523.615 105.48C524.042 105.181 524.341 104.787 524.511 104.296H526.079C525.845 105.139 525.375 105.827 524.671 106.36C523.967 106.883 523.093 107.144 522.047 107.144C521.215 107.144 520.469 106.957 519.807 106.584C519.157 106.211 518.645 105.683 518.271 105C517.898 104.307 517.711 103.507 517.711 102.6C517.711 101.693 517.893 100.899 518.255 100.216C518.618 99.5335 519.125 99.0109 519.775 98.6482C520.437 98.2749 521.194 98.0882 522.047 98.0882C522.879 98.0882 523.615 98.2695 524.255 98.6322C524.895 98.9949 525.386 99.4962 525.727 100.136C526.079 100.765 526.255 101.48 526.255 102.28ZM524.751 101.976C524.751 101.421 524.629 100.947 524.383 100.552C524.138 100.147 523.802 99.8429 523.375 99.6402C522.959 99.4269 522.495 99.3202 521.983 99.3202C521.247 99.3202 520.618 99.5549 520.095 100.024C519.583 100.493 519.29 101.144 519.215 101.976H524.751ZM532.449 98.0722C533.516 98.0722 534.38 98.3974 535.041 99.0481C535.703 99.6881 536.033 100.616 536.033 101.832V107H534.593V102.04C534.593 101.165 534.375 100.499 533.937 100.04C533.5 99.5709 532.903 99.3362 532.145 99.3362C531.377 99.3362 530.764 99.5762 530.305 100.056C529.857 100.536 529.633 101.235 529.633 102.152V107H528.177V98.2322H529.633V99.4802C529.921 99.0322 530.311 98.6855 530.801 98.4402C531.303 98.1949 531.852 98.0722 532.449 98.0722ZM537.868 102.584C537.868 101.688 538.049 100.904 538.412 100.232C538.774 99.5495 539.27 99.0215 539.9 98.6482C540.54 98.2749 541.254 98.0882 542.044 98.0882C542.726 98.0882 543.361 98.2482 543.948 98.5682C544.534 98.8775 544.982 99.2882 545.292 99.8002V95.1602H546.764V107H545.292V105.352C545.004 105.875 544.577 106.307 544.012 106.648C543.446 106.979 542.785 107.144 542.028 107.144C541.249 107.144 540.54 106.952 539.9 106.568C539.27 106.184 538.774 105.645 538.412 104.952C538.049 104.259 537.868 103.469 537.868 102.584ZM545.292 102.6C545.292 101.939 545.158 101.363 544.892 100.872C544.625 100.381 544.262 100.008 543.804 99.7522C543.356 99.4855 542.86 99.3521 542.316 99.3521C541.772 99.3521 541.276 99.4802 540.828 99.7362C540.38 99.9922 540.022 100.365 539.756 100.856C539.489 101.347 539.356 101.923 539.356 102.584C539.356 103.256 539.489 103.843 539.756 104.344C540.022 104.835 540.38 105.213 540.828 105.48C541.276 105.736 541.772 105.864 542.316 105.864C542.86 105.864 543.356 105.736 543.804 105.48C544.262 105.213 544.625 104.835 544.892 104.344C545.158 103.843 545.292 103.261 545.292 102.6Z" fill="#E10D0D"/>
<path d="M27 79.36V80.004C26.9991 81.5135 26.5103 82.9823 25.6065 84.1913C24.7027 85.4003 23.4323 86.2847 21.9847 86.7127C20.5372 87.1407 18.9901 87.0893 17.5741 86.5662C16.1582 86.0431 14.9493 85.0763 14.1277 83.8099C13.3061 82.5436 12.9159 81.0456 13.0152 79.5394C13.1145 78.0332 13.698 76.5994 14.6788 75.452C15.6595 74.3045 16.9849 73.5048 18.4573 73.1721C19.9297 72.8394 21.4702 72.9916 22.849 73.606" stroke="#3FCB29" stroke-width="1.6" stroke-linecap="round" stroke-linejoin="round"/>
<path d="M26.9999 74.4023L19.9999 81.4093L17.8999 79.3093" stroke="#3FCB29" stroke-width="1.6" stroke-linecap="round" stroke-linejoin="round"/>
<path d="M549 0H10C4.47715 0 0 4.47715 0 10V50C0 55.5228 4.47715 60 10 60H549C554.523 60 559 55.5228 559 50V10C559 4.47715 554.523 0 549 0Z" fill="#8B12FC"/>
<path d="M144.885 21.7096V23.7556H140.815V36.9996H138.307V23.7556H134.215V21.7096H144.885ZM153.695 24.6796C154.619 24.6796 155.441 24.8776 156.159 25.2736C156.893 25.6696 157.465 26.2563 157.875 27.0336C158.301 27.8109 158.513 28.7496 158.513 29.8496V36.9996H156.027V30.2236C156.027 29.1383 155.756 28.3096 155.213 27.7376C154.671 27.1509 153.93 26.8576 152.991 26.8576C152.053 26.8576 151.305 27.1509 150.747 27.7376C150.205 28.3096 149.933 29.1383 149.933 30.2236V36.9996H147.425V20.7196H149.933V26.2856C150.359 25.7723 150.894 25.3763 151.539 25.0976C152.199 24.8189 152.918 24.6796 153.695 24.6796ZM160.877 30.8836C160.877 29.6663 161.126 28.5883 161.625 27.6496C162.138 26.7109 162.827 25.9849 163.693 25.4716C164.573 24.9436 165.541 24.6796 166.597 24.6796C167.55 24.6796 168.379 24.8703 169.083 25.2516C169.801 25.6183 170.373 26.0803 170.799 26.6376V24.8776H173.329V36.9996H170.799V35.1956C170.373 35.7676 169.794 36.2443 169.061 36.6256C168.327 37.0069 167.491 37.1976 166.553 37.1976C165.511 37.1976 164.558 36.9336 163.693 36.4056C162.827 35.8629 162.138 35.1149 161.625 34.1616C161.126 33.1936 160.877 32.1009 160.877 30.8836ZM170.799 30.9276C170.799 30.0916 170.623 29.3656 170.271 28.7496C169.933 28.1336 169.486 27.6643 168.929 27.3416C168.371 27.0189 167.77 26.8576 167.125 26.8576C166.479 26.8576 165.878 27.0189 165.321 27.3416C164.763 27.6496 164.309 28.1116 163.957 28.7276C163.619 29.3289 163.451 30.0476 163.451 30.8836C163.451 31.7196 163.619 32.4529 163.957 33.0836C164.309 33.7143 164.763 34.1983 165.321 34.5356C165.893 34.8583 166.494 35.0196 167.125 35.0196C167.77 35.0196 168.371 34.8583 168.929 34.5356C169.486 34.2129 169.933 33.7436 170.271 33.1276C170.623 32.4969 170.799 31.7636 170.799 30.9276ZM182.739 24.6796C183.692 24.6796 184.543 24.8776 185.291 25.2736C186.053 25.6696 186.647 26.2563 187.073 27.0336C187.498 27.8109 187.711 28.7496 187.711 29.8496V36.9996H185.225V30.2236C185.225 29.1383 184.953 28.3096 184.411 27.7376C183.868 27.1509 183.127 26.8576 182.189 26.8576C181.25 26.8576 180.502 27.1509 179.945 27.7376C179.402 28.3096 179.131 29.1383 179.131 30.2236V36.9996H176.623V24.8776H179.131V26.2636C179.541 25.7649 180.062 25.3763 180.693 25.0976C181.338 24.8189 182.02 24.6796 182.739 24.6796ZM195.706 30.9496L201.294 36.9996H197.906L193.418 31.7856V36.9996H190.91V20.7196H193.418V30.1796L197.818 24.8776H201.294L195.706 30.9496ZM219.718 24.8776L212.282 42.6976H209.686L212.15 36.8016L207.376 24.8776H210.17L213.58 34.1176L217.122 24.8776H219.718ZM226.869 37.1976C225.725 37.1976 224.691 36.9409 223.767 36.4276C222.843 35.8996 222.117 35.1663 221.589 34.2276C221.061 33.2743 220.797 32.1743 220.797 30.9276C220.797 29.6956 221.068 28.6029 221.611 27.6496C222.154 26.6963 222.894 25.9629 223.833 25.4496C224.772 24.9363 225.82 24.6796 226.979 24.6796C228.138 24.6796 229.186 24.9363 230.125 25.4496C231.064 25.9629 231.804 26.6963 232.347 27.6496C232.89 28.6029 233.161 29.6956 233.161 30.9276C233.161 32.1596 232.882 33.2523 232.325 34.2056C231.768 35.1589 231.005 35.8996 230.037 36.4276C229.084 36.9409 228.028 37.1976 226.869 37.1976ZM226.869 35.0196C227.514 35.0196 228.116 34.8656 228.673 34.5576C229.245 34.2496 229.707 33.7876 230.059 33.1716C230.411 32.5556 230.587 31.8076 230.587 30.9276C230.587 30.0476 230.418 29.3069 230.081 28.7056C229.744 28.0896 229.296 27.6276 228.739 27.3196C228.182 27.0116 227.58 26.8576 226.935 26.8576C226.29 26.8576 225.688 27.0116 225.131 27.3196C224.588 27.6276 224.156 28.0896 223.833 28.7056C223.51 29.3069 223.349 30.0476 223.349 30.9276C223.349 32.2329 223.679 33.2449 224.339 33.9636C225.014 34.6676 225.857 35.0196 226.869 35.0196ZM246.618 24.8776V36.9996H244.11V35.5696C243.714 36.0683 243.194 36.4643 242.548 36.7576C241.918 37.0363 241.243 37.1756 240.524 37.1756C239.571 37.1756 238.713 36.9776 237.95 36.5816C237.202 36.1856 236.608 35.5989 236.168 34.8216C235.743 34.0443 235.53 33.1056 235.53 32.0056V24.8776H238.016V31.6316C238.016 32.7169 238.288 33.5529 238.83 34.1396C239.373 34.7116 240.114 34.9976 241.052 34.9976C241.991 34.9976 242.732 34.7116 243.274 34.1396C243.832 33.5529 244.11 32.7169 244.11 31.6316V24.8776H246.618ZM260.724 26.9236H258.48V36.9996H255.95V26.9236H254.52V24.8776H255.95V24.0196C255.95 22.6263 256.317 21.6143 257.05 20.9836C257.798 20.3383 258.964 20.0156 260.548 20.0156V22.1056C259.786 22.1056 259.25 22.2523 258.942 22.5456C258.634 22.8243 258.48 23.3156 258.48 24.0196V24.8776H260.724V26.9236ZM268.205 37.1976C267.061 37.1976 266.027 36.9409 265.103 36.4276C264.179 35.8996 263.453 35.1663 262.925 34.2276C262.397 33.2743 262.133 32.1743 262.133 30.9276C262.133 29.6956 262.404 28.6029 262.947 27.6496C263.49 26.6963 264.23 25.9629 265.169 25.4496C266.108 24.9363 267.156 24.6796 268.315 24.6796C269.474 24.6796 270.522 24.9363 271.461 25.4496C272.4 25.9629 273.14 26.6963 273.683 27.6496C274.226 28.6029 274.497 29.6956 274.497 30.9276C274.497 32.1596 274.218 33.2523 273.661 34.2056C273.104 35.1589 272.341 35.8996 271.373 36.4276C270.42 36.9409 269.364 37.1976 268.205 37.1976ZM268.205 35.0196C268.85 35.0196 269.452 34.8656 270.009 34.5576C270.581 34.2496 271.043 33.7876 271.395 33.1716C271.747 32.5556 271.923 31.8076 271.923 30.9276C271.923 30.0476 271.754 29.3069 271.417 28.7056C271.08 28.0896 270.632 27.6276 270.075 27.3196C269.518 27.0116 268.916 26.8576 268.271 26.8576C267.626 26.8576 267.024 27.0116 266.467 27.3196C265.924 27.6276 265.492 28.0896 265.169 28.7056C264.846 29.3069 264.685 30.0476 264.685 30.9276C264.685 32.2329 265.015 33.2449 265.675 33.9636C266.35 34.6676 267.193 35.0196 268.205 35.0196ZM279.484 26.6376C279.851 26.0216 280.335 25.5449 280.936 25.2076C281.552 24.8556 282.278 24.6796 283.114 24.6796V27.2756H282.476C281.494 27.2756 280.746 27.5249 280.232 28.0236C279.734 28.5223 279.484 29.3876 279.484 30.6196V36.9996H276.976V24.8776H279.484V26.6376ZM302.046 24.8776L294.61 42.6976H292.014L294.478 36.8016L289.704 24.8776H292.498L295.908 34.1176L299.45 24.8776H302.046ZM309.197 37.1976C308.053 37.1976 307.019 36.9409 306.095 36.4276C305.171 35.8996 304.445 35.1663 303.917 34.2276C303.389 33.2743 303.125 32.1743 303.125 30.9276C303.125 29.6956 303.396 28.6029 303.939 27.6496C304.482 26.6963 305.222 25.9629 306.161 25.4496C307.1 24.9363 308.148 24.6796 309.307 24.6796C310.466 24.6796 311.514 24.9363 312.453 25.4496C313.392 25.9629 314.132 26.6963 314.675 27.6496C315.218 28.6029 315.489 29.6956 315.489 30.9276C315.489 32.1596 315.21 33.2523 314.653 34.2056C314.096 35.1589 313.333 35.8996 312.365 36.4276C311.412 36.9409 310.356 37.1976 309.197 37.1976ZM309.197 35.0196C309.842 35.0196 310.444 34.8656 311.001 34.5576C311.573 34.2496 312.035 33.7876 312.387 33.1716C312.739 32.5556 312.915 31.8076 312.915 30.9276C312.915 30.0476 312.746 29.3069 312.409 28.7056C312.072 28.0896 311.624 27.6276 311.067 27.3196C310.51 27.0116 309.908 26.8576 309.263 26.8576C308.618 26.8576 308.016 27.0116 307.459 27.3196C306.916 27.6276 306.484 28.0896 306.161 28.7056C305.838 29.3069 305.677 30.0476 305.677 30.9276C305.677 32.2329 306.007 33.2449 306.667 33.9636C307.342 34.6676 308.185 35.0196 309.197 35.0196ZM328.946 24.8776V36.9996H326.438V35.5696C326.042 36.0683 325.522 36.4643 324.876 36.7576C324.246 37.0363 323.571 37.1756 322.852 37.1756C321.899 37.1756 321.041 36.9776 320.278 36.5816C319.53 36.1856 318.936 35.5989 318.496 34.8216C318.071 34.0443 317.858 33.1056 317.858 32.0056V24.8776H320.344V31.6316C320.344 32.7169 320.616 33.5529 321.158 34.1396C321.701 34.7116 322.442 34.9976 323.38 34.9976C324.319 34.9976 325.06 34.7116 325.602 34.1396C326.16 33.5529 326.438 32.7169 326.438 31.6316V24.8776H328.946ZM334.763 26.6376C335.13 26.0216 335.614 25.5449 336.215 25.2076C336.831 24.8556 337.557 24.6796 338.393 24.6796V27.2756H337.755C336.773 27.2756 336.025 27.5249 335.511 28.0236C335.013 28.5223 334.763 29.3876 334.763 30.6196V36.9996H332.255V24.8776H334.763V26.6376ZM347.69 23.2716C347.235 23.2716 346.854 23.1176 346.546 22.8096C346.238 22.5016 346.084 22.1203 346.084 21.6656C346.084 21.2109 346.238 20.8296 346.546 20.5216C346.854 20.2136 347.235 20.0596 347.69 20.0596C348.13 20.0596 348.504 20.2136 348.812 20.5216C349.12 20.8296 349.274 21.2109 349.274 21.6656C349.274 22.1203 349.12 22.5016 348.812 22.8096C348.504 23.1176 348.13 23.2716 347.69 23.2716ZM348.922 24.8776V36.9996H346.414V24.8776H348.922ZM358.33 24.6796C359.284 24.6796 360.134 24.8776 360.882 25.2736C361.645 25.6696 362.239 26.2563 362.664 27.0336C363.09 27.8109 363.302 28.7496 363.302 29.8496V36.9996H360.816V30.2236C360.816 29.1383 360.545 28.3096 360.002 27.7376C359.46 27.1509 358.719 26.8576 357.78 26.8576C356.842 26.8576 356.094 27.1509 355.536 27.7376C354.994 28.3096 354.722 29.1383 354.722 30.2236V36.9996H352.214V24.8776H354.722V26.2636C355.133 25.7649 355.654 25.3763 356.284 25.0976C356.93 24.8189 357.612 24.6796 358.33 24.6796ZM369.428 26.9236V33.6336C369.428 34.0883 369.53 34.4183 369.736 34.6236C369.956 34.8143 370.322 34.9096 370.836 34.9096H372.376V36.9996H370.396C369.266 36.9996 368.401 36.7356 367.8 36.2076C367.198 35.6796 366.898 34.8216 366.898 33.6336V26.9236H365.468V24.8776H366.898V21.8636H369.428V24.8776H372.376V26.9236H369.428ZM385.797 30.6416C385.797 31.0963 385.768 31.5069 385.709 31.8736H376.447C376.52 32.8416 376.88 33.6189 377.525 34.2056C378.17 34.7923 378.962 35.0856 379.901 35.0856C381.25 35.0856 382.204 34.5209 382.761 33.3916H385.467C385.1 34.5063 384.433 35.4229 383.465 36.1416C382.512 36.8456 381.324 37.1976 379.901 37.1976C378.742 37.1976 377.701 36.9409 376.777 36.4276C375.868 35.8996 375.149 35.1663 374.621 34.2276C374.108 33.2743 373.851 32.1743 373.851 30.9276C373.851 29.6809 374.1 28.5883 374.599 27.6496C375.112 26.6963 375.824 25.9629 376.733 25.4496C377.657 24.9363 378.713 24.6796 379.901 24.6796C381.045 24.6796 382.064 24.9289 382.959 25.4276C383.854 25.9263 384.55 26.6303 385.049 27.5396C385.548 28.4343 385.797 29.4683 385.797 30.6416ZM383.179 29.8496C383.164 28.9256 382.834 28.1849 382.189 27.6276C381.544 27.0703 380.744 26.7916 379.791 26.7916C378.926 26.7916 378.185 27.0703 377.569 27.6276C376.953 28.1703 376.586 28.9109 376.469 29.8496H383.179ZM390.773 26.6376C391.14 26.0216 391.624 25.5449 392.225 25.2076C392.841 24.8556 393.567 24.6796 394.403 24.6796V27.2756H393.765C392.783 27.2756 392.035 27.5249 391.521 28.0236C391.023 28.5223 390.773 29.3876 390.773 30.6196V36.9996H388.265V24.8776H390.773V26.6376ZM407.819 30.6416C407.819 31.0963 407.789 31.5069 407.731 31.8736H398.469C398.542 32.8416 398.901 33.6189 399.547 34.2056C400.192 34.7923 400.984 35.0856 401.923 35.0856C403.272 35.0856 404.225 34.5209 404.783 33.3916H407.489C407.122 34.5063 406.455 35.4229 405.487 36.1416C404.533 36.8456 403.345 37.1976 401.923 37.1976C400.764 37.1976 399.723 36.9409 398.799 36.4276C397.889 35.8996 397.171 35.1663 396.643 34.2276C396.129 33.2743 395.873 32.1743 395.873 30.9276C395.873 29.6809 396.122 28.5883 396.621 27.6496C397.134 26.6963 397.845 25.9629 398.755 25.4496C399.679 24.9363 400.735 24.6796 401.923 24.6796C403.067 24.6796 404.086 24.9289 404.981 25.4276C405.875 25.9263 406.572 26.6303 407.071 27.5396C407.569 28.4343 407.819 29.4683 407.819 30.6416ZM405.201 29.8496C405.186 28.9256 404.856 28.1849 404.211 27.6276C403.565 27.0703 402.766 26.7916 401.813 26.7916C400.947 26.7916 400.207 27.0703 399.591 27.6276C398.975 28.1703 398.608 28.9109 398.491 29.8496H405.201ZM414.687 37.1976C413.733 37.1976 412.875 37.0289 412.113 36.6916C411.365 36.3396 410.771 35.8703 410.331 35.2836C409.891 34.6823 409.656 34.0149 409.627 33.2816H412.223C412.267 33.7949 412.509 34.2276 412.949 34.5796C413.403 34.9169 413.968 35.0856 414.643 35.0856C415.347 35.0856 415.889 34.9536 416.271 34.6896C416.667 34.4109 416.865 34.0589 416.865 33.6336C416.865 33.1789 416.645 32.8416 416.205 32.6216C415.779 32.4016 415.097 32.1596 414.159 31.8956C413.249 31.6463 412.509 31.4043 411.937 31.1696C411.365 30.9349 410.866 30.5756 410.441 30.0916C410.03 29.6076 409.825 28.9696 409.825 28.1776C409.825 27.5323 410.015 26.9456 410.397 26.4176C410.778 25.8749 411.321 25.4496 412.025 25.1416C412.743 24.8336 413.565 24.6796 414.489 24.6796C415.867 24.6796 416.975 25.0316 417.811 25.7356C418.661 26.4249 419.116 27.3709 419.175 28.5736H416.667C416.623 28.0309 416.403 27.5983 416.007 27.2756C415.611 26.9529 415.075 26.7916 414.401 26.7916C413.741 26.7916 413.235 26.9163 412.883 27.1656C412.531 27.4149 412.355 27.7449 412.355 28.1556C412.355 28.4783 412.472 28.7496 412.707 28.9696C412.941 29.1896 413.227 29.3656 413.565 29.4976C413.902 29.6149 414.401 29.7689 415.061 29.9596C415.941 30.1943 416.659 30.4363 417.217 30.6856C417.789 30.9203 418.28 31.2723 418.691 31.7416C419.101 32.2109 419.314 32.8343 419.329 33.6116C419.329 34.3009 419.138 34.9169 418.757 35.4596C418.375 36.0023 417.833 36.4276 417.129 36.7356C416.439 37.0436 415.625 37.1976 414.687 37.1976ZM424.965 26.9236V33.6336C424.965 34.0883 425.067 34.4183 425.273 34.6236C425.493 34.8143 425.859 34.9096 426.373 34.9096H427.913V36.9996H425.933C424.803 36.9996 423.938 36.7356 423.337 36.2076C422.735 35.6796 422.435 34.8216 422.435 33.6336V26.9236H421.005V24.8776H422.435V21.8636H424.965V24.8776H427.913V26.9236H424.965ZM433.37 21.7096L433.084 32.3796H430.994L430.708 21.7096H433.37ZM432.116 37.1536C431.662 37.1536 431.28 36.9996 430.972 36.6916C430.664 36.3836 430.51 36.0023 430.51 35.5476C430.51 35.0929 430.664 34.7116 430.972 34.4036C431.28 34.0956 431.662 33.9416 432.116 33.9416C432.556 33.9416 432.93 34.0956 433.238 34.4036C433.546 34.7116 433.7 35.0929 433.7 35.5476C433.7 36.0023 433.546 36.3836 433.238 36.6916C432.93 36.9996 432.556 37.1536 432.116 37.1536Z" fill="white"/>
</svg>
